<?xml version="1.0" encoding="utf-8"?>
<!-- Generator: Adobe Illustrator 16.0.0, SVG Export Plug-In . SVG Version: 6.00 Build 0)  -->
<!DOCTYPE svg PUBLIC "-//W3C//DTD SVG 1.1//EN" "http://www.w3.org/Graphics/SVG/1.1/DTD/svg11.dtd">
<svg version="1.1" id="Calque_1" xmlns="http://www.w3.org/2000/svg" xmlns:xlink="http://www.w3.org/1999/xlink" x="0px" y="0px"
	 width="390px" height="631.5px" viewBox="0 0 390 631.5" enable-background="new 0 0 390 631.5" xml:space="preserve">
<g>
	<g id="fond">
		<path fill="#BB4139" d="M373.168,538.785c0,17.05-167.647,26.357-177.529,26.357h-2.203c-9.881,0-177.154-10.227-177.154-27.277
			l0,0c0-17.049,6.059-61.765,15.938-61.765h325.562C367.661,476.099,373.168,521.736,373.168,538.785L373.168,538.785z"/>
		<path fill="#F9EFCD" stroke="#BB4139" stroke-width="5" stroke-miterlimit="10" d="M375.674,530.453
			c0,9.576-9.127,17.335-20.386,17.335H34.711c-11.258,0-20.384-7.759-20.384-17.335V-11.413c0-9.575,9.126-17.337,20.384-17.337
			h320.577c11.259,0,20.386,7.763,20.386,17.337V530.453z"/>
		<g>
			<path fill="#69655D" d="M190.904,591.299c0,0-4.502,12.639-1.825,28.477c0,0,1.074,2.504-1.104,4.769
				c0,0,2.631-2.503,2.346-2.827c-0.286-0.326,0.792,0.967,0.579,2.1c-0.209,1.133,0.627,1.29,0.743,0.729
				c0.111-0.566,0.642-1.374,1.438,1.131c0,0,1.456,2.423,1.588,3.151c0,0,0.686-2.505,1.139-3.312
				c0.451-0.81,1.112,0.725,1.112,0.725v-1.287l1.456,0.646l1.646-2.101c0,0,0-0.808,0-0.403c0,0.403-0.059-2.423,0.604-1.535
				c0,0,0.664-17.937,0-20.926c-0.661-2.99-2.396-10.099-6.69-10.665C189.635,589.397,190.904,591.299,190.904,591.299z"/>
			<path fill="#976B23" d="M197.026,576.436c-2.552-0.803-5.299,0.553-6.129,3.03c-0.827,2.475,0.573,5.138,3.123,5.94
				c2.559,0.806,5.302-0.554,6.132-3.027C200.981,579.901,199.58,577.242,197.026,576.436z M194.7,583.376
				c-1.399-0.439-2.166-1.896-1.713-3.256c0.456-1.361,1.957-2.095,3.355-1.656c1.401,0.439,2.169,1.893,1.712,3.254
				C197.604,583.075,196.102,583.817,194.7,583.376z"/>
			<ellipse fill="#C68D22" cx="194.8" cy="565.143" rx="4.269" ry="4.138"/>
			<ellipse fill="#C68D22" cx="194.924" cy="588.388" rx="4.268" ry="4.138"/>
			<path fill="#C68D22" d="M192.156,567.113c0,0,0.891,4.884-8.386,8.22c-9.274,3.335,5.265,3.19,6.99,3.85
				c1.728,0.662,7.266-3.089,1.375-6.092C192.136,573.093,196.128,569.896,192.156,567.113z"/>
			<path fill="#C68D22" d="M197.416,566.634c0,0-0.681,4.921,8.732,7.877c9.415,2.959-5.122,3.402-6.815,4.128
				c-1.692,0.733-7.396-2.796-1.644-6.03C197.691,572.61,193.567,569.578,197.416,566.634z"/>
			<path fill="#976B23" d="M197.691,572.61c0,0,1.604,1.824,4.865,2.264C202.55,574.87,199.6,576.052,197.691,572.61z"/>
		</g>
	</g>
	<g id="deco">
		<g>
			<path fill="#F9EFCD" stroke="#D1A415" stroke-miterlimit="10" d="M357.76,143.475c-4.393-19.498,4.434-27.657,0-28.277
				c5.783-8.003-0.494-23.944,0-26.798c-10.305-2.744-0.929-55.318,0-70.693c-1.604-10.046-7.71-11.994,0-22.359
				c-0.401-1.343-0.503-3.57-0.475-6.138H32.24c0,2.001,0,4.045,0,6.138c-1.842,6.76-0.716,16.173,0,22.359
				c9.98,5.112-1.682,70.03,0,70.692c-5.224,12.174,4.825,23.906,0,26.798c-5.5,7.79,7.199,13.827,0,28.276
				c4.599,7.027,1.341,21.979,0,29.265c-3.686,9.887-1.95,21.72,0,29.757c-7.773,12.735-4.203,39.853,0,53.334
				c7.94,3.944,2.514,16.194,0,29.263c10.057,6.541,11.511,14.375,0,28.278c-6.428,12.206-3.766,22.394,0,26.798
				c4.269,9.365,8.057,43.638,0,58.744c3.504,15.787-2.125,10.888,0,22.36c-11.273,14.116,3.245,7.248,0,19.397
				c3.05,0.262,0.32,13.94-0.039,15.964c-10.11,3.681-3.512,6.474,0.039,11.984c6.604-2.135-0.068,2.85-0.795,5.854
				c-1.559-2.325-3.791,32.747,0.795,38.827c-6.59,7.447-0.304,11.365,5.969,13.109c11.545-0.591,8.67,8.065,14.415,5.43
				c-2.047-6.451,4.382-0.21,4.795,0c3.388,8.161,9.276-5.035,13.351,0c1.413,6.632,7.704-6.688,20.35,0
				c12.789-9.312,21.896,5.367,25.793,0c15.353-0.091,17.805,3.129,29.68,0c8.4-7.425,10.665,0.881,32.013,0
				c4.474-0.3,17.269-1.06,32.792,0c14.064-3.839,23.497,6.652,32.017,0c3.046-1.235,23.532-0.891,29.681,0
				c18.526,12.202,12.165-0.81,25.791,0c15.337,6.777,21.109,11.446,20.352,0c10.976,8.507,13.219,2.556,13.473,0.428
				c2.135,0.288,6.769,0.44,4.673-0.428c12.548,3.013,0.271,1.451,14.415-5.43c3.214-11.159,1.645,1.245,5.888-12.841
				c-0.036-0.048-0.071-0.099-0.108-0.156c-1.763,1.063-2.894-36.543-1.024-37.16c-0.562-2.329-0.634-5.464,1.216-7.633
				c-1.746-1.751-5.835-11.204,0-12.002c-1.063-7.127,4.157-5.621,0-15.948c-0.553-2.742-4.405-16.777,0-19.397
				c1.583-10.228-3.569-16.545,0-22.358c-3.113-3.266,0.448-45.77,0-58.746c-3.339-0.866-2.628-13.474,0-26.799
				c-2.318-13.009,1.632-23.75,0-28.278c-7.563-9.956-2.604-24.227,0-29.264c-8.484-12.955-4.605-44.639,0-53.333
				c-5.555-14.54-2.336-24.361,0-29.757C367.531,162.855,349.104,150.353,357.76,143.475z"/>
		</g>
	</g>
</g>
</svg>
