<?xml version="1.0" encoding="utf-8"?>
<!-- Generator: Adobe Illustrator 16.0.0, SVG Export Plug-In . SVG Version: 6.00 Build 0)  -->
<!DOCTYPE svg PUBLIC "-//W3C//DTD SVG 1.1//EN" "http://www.w3.org/Graphics/SVG/1.1/DTD/svg11.dtd">
<svg version="1.1" id="Calque_1" xmlns="http://www.w3.org/2000/svg" xmlns:xlink="http://www.w3.org/1999/xlink" x="0px" y="0px"
	 width="390px" height="631.5px" viewBox="0 0 390 631.5" enable-background="new 0 0 390 631.5" xml:space="preserve">
<g>
	<g id="fond">
		<path fill="#BB4139" d="M373.168,545.372c0,15.803-167.647,24.43-177.529,24.43h-2.203c-9.881,0-177.154-9.479-177.154-25.282l0,0
			c0-15.802,6.058-57.247,15.938-57.247h325.562C367.662,487.271,373.168,529.57,373.168,545.372L373.168,545.372z"/>
		<path fill="#F9EFCD" stroke="#BB4139" stroke-width="5" stroke-miterlimit="10" d="M375.674,537.649
			c0,8.876-9.127,16.068-20.385,16.068H34.711c-11.258,0-20.384-7.192-20.384-16.068V35.423c0-8.875,9.126-16.069,20.384-16.069
			h320.578c11.258,0,20.385,7.195,20.385,16.069V537.649z"/>
		<g>
			<path fill="#69655D" d="M190.904,594.044c0,0-4.502,11.715-1.826,26.394c0,0,1.075,2.321-1.104,4.419c0,0,2.631-2.32,2.346-2.62
				c-0.287-0.302,0.792,0.896,0.579,1.946c-0.209,1.05,0.627,1.196,0.743,0.676c0.111-0.525,0.641-1.273,1.437,1.048
				c0,0,1.456,2.246,1.588,2.921c0,0,0.686-2.321,1.139-3.069c0.451-0.75,1.112,0.672,1.112,0.672v-1.194l1.456,0.599l1.646-1.947
				c0,0,0-0.748,0-0.374s-0.059-2.246,0.603-1.423c0,0,0.664-16.624,0-19.395c-0.661-2.771-2.396-9.36-6.69-9.885
				C189.635,592.282,190.904,594.044,190.904,594.044z"/>
			<path fill="#976B23" d="M197.026,580.269c-2.552-0.745-5.299,0.511-6.129,2.808c-0.827,2.293,0.573,4.762,3.123,5.506
				c2.558,0.746,5.302-0.514,6.132-2.807C200.981,583.48,199.58,581.016,197.026,580.269z M194.7,586.701
				c-1.399-0.407-2.166-1.758-1.712-3.017c0.456-1.262,1.957-1.942,3.355-1.536c1.401,0.408,2.169,1.754,1.712,3.016
				C197.604,586.422,196.102,587.11,194.7,586.701z"/>
			<ellipse fill="#C68D22" cx="194.8" cy="569.802" rx="4.269" ry="3.835"/>
			<ellipse fill="#C68D22" cx="194.924" cy="591.346" rx="4.268" ry="3.835"/>
			<path fill="#C68D22" d="M192.156,571.628c0,0,0.89,4.526-8.386,7.618c-9.275,3.091,5.264,2.957,6.99,3.568
				c1.728,0.614,7.266-2.863,1.375-5.646C192.136,577.17,196.128,574.207,192.156,571.628z"/>
			<path fill="#C68D22" d="M197.416,571.184c0,0-0.68,4.56,8.733,7.3c9.415,2.743-5.122,3.154-6.816,3.827
				c-1.692,0.679-7.395-2.592-1.643-5.59C197.691,576.723,193.567,573.912,197.416,571.184z"/>
			<path fill="#976B23" d="M197.691,576.723c0,0,1.604,1.691,4.865,2.098C202.55,578.817,199.6,579.912,197.691,576.723z"/>
		</g>
	</g>
	<g id="deco">
		<g>
			<path fill="#F9EFCD" stroke="#D1A415" stroke-miterlimit="10" d="M357.76,178.98c-4.392-18.072,4.434-25.634,0-26.209
				c5.783-7.418-0.494-22.193,0-24.838c-10.304-2.543-0.928-51.271,0-65.522c-1.604-9.311-7.71-11.116,0-20.723
				c-0.401-1.245-0.503-3.309-0.474-5.689H32.24c0,1.855,0,3.749,0,5.689c-1.841,6.265-0.715,14.99,0,20.723
				c9.981,4.738-1.681,64.907,0,65.521c-5.223,11.284,4.826,22.158,0,24.838c-5.5,7.22,7.2,12.816,0,26.208
				c4.599,6.513,1.341,20.371,0,27.124c-3.685,9.163-1.95,20.131,0,27.58c-7.773,11.804-4.203,36.938,0,49.433
				c7.941,3.656,2.514,15.01,0,27.123c10.057,6.062,11.511,13.323,0,26.209c-6.427,11.313-3.765,20.756,0,24.838
				c4.269,8.681,8.057,40.445,0,54.447c3.504,14.632-2.125,10.091,0,20.725c-11.273,13.083,3.246,6.718,0,17.979
				c3.05,0.242,0.321,12.919-0.039,14.795c-10.11,3.412-3.511,6,0.039,11.108c6.605-1.979-0.068,2.641-0.794,5.426
				c-1.559-2.156-3.791,30.351,0.794,35.986c-6.589,6.902-0.303,10.534,5.969,12.15c11.545-0.548,8.67,7.476,14.415,5.033
				c-2.047-5.979,4.382-0.195,4.795,0c3.388,7.564,9.277-4.666,13.351,0c1.413,6.147,7.704-6.199,20.349,0
				c12.789-8.63,21.896,4.974,25.793,0c15.353-0.084,17.805,2.9,29.68,0c8.4-6.881,10.665,0.816,32.013,0
				c4.473-0.278,17.268-0.982,32.792,0c14.064-3.558,23.497,6.166,32.016,0c3.046-1.145,23.533-0.826,29.681,0
				c18.526,11.309,12.165-0.75,25.791,0c15.337,6.282,21.11,10.609,20.352,0c10.975,7.884,13.219,2.369,13.472,0.396
				c2.135,0.268,6.769,0.408,4.673-0.396c12.548,2.793,0.271,1.345,14.415-5.033c3.214-10.342,1.645,1.155,5.888-11.901
				c-0.036-0.044-0.071-0.092-0.108-0.145c-1.763,0.986-2.894-33.87-1.025-34.442c-0.561-2.158-0.634-5.063,1.216-7.074
				c-1.746-1.623-5.835-10.385,0-11.124c-1.063-6.606,4.157-5.21,0-14.781c-0.553-2.542-4.405-15.55,0-17.979
				c1.583-9.479-3.569-15.335,0-20.723c-3.113-3.027,0.448-42.422,0-54.449c-3.339-0.803-2.628-12.487,0-24.838
				c-2.318-12.057,1.632-22.012,0-26.209c-7.563-9.227-2.603-22.454,0-27.123c-8.484-12.007-4.605-41.373,0-49.432
				c-5.555-13.476-2.336-22.579,0-27.58C367.531,196.943,349.104,185.355,357.76,178.98z"/>
		</g>
	</g>
</g>

</svg>
