<?xml version="1.0" encoding="utf-8"?>
<!-- Generator: Adobe Illustrator 16.0.0, SVG Export Plug-In . SVG Version: 6.00 Build 0)  -->
<!DOCTYPE svg PUBLIC "-//W3C//DTD SVG 1.1//EN" "http://www.w3.org/Graphics/SVG/1.1/DTD/svg11.dtd">
<svg version="1.1" xmlns="http://www.w3.org/2000/svg" xmlns:xlink="http://www.w3.org/1999/xlink" x="0px" y="0px" width="390px"
	 height="500px" viewBox="0 0 390 500" enable-background="new 0 0 390 500" xml:space="preserve">
<g id="fond">
	<path fill="#BB4139" d="M387.295,395.729c0,18.982-180.94,29.346-191.606,29.346h-2.377c-10.665,0-191.202-11.388-191.202-30.37
		l0,0c0-18.983,6.537-30.371,17.202-30.371h351.377C381.354,364.334,387.295,376.746,387.295,395.729L387.295,395.729z"/>
	<path fill="#F9EFCD" stroke="#BB4139" stroke-width="5" stroke-miterlimit="10" d="M390,386.453c0,10.661-9.85,19.303-22,19.303H22
		c-12.15,0-22-8.642-22-19.303v-449.81c0-10.661,9.85-19.303,22-19.303h346c12.15,0,22,8.642,22,19.303V386.453z"/>
	<path fill="#976B23" d="M389.77,179.859c0,0,2.436-1.746,3.244-3.896C393.014,175.965,393.599,180.221,389.77,179.859z"/>
	<g>
		<path fill="#69655D" d="M190.578,454.194c0,0-4.858,14.074-1.971,31.705c0,0,1.161,2.789-1.19,5.308c0,0,2.839-2.788,2.531-3.148
			c-0.31-0.36,0.855,1.079,0.625,2.339c-0.225,1.26,0.677,1.438,0.802,0.81c0.121-0.63,0.692-1.528,1.55,1.26
			c0,0,1.571,2.698,1.714,3.508c0,0,0.74-2.789,1.228-3.688c0.488-0.899,1.201,0.81,1.201,0.81v-1.438l1.572,0.719l1.777-2.338
			c0,0,0-0.9,0-0.45s-0.063-2.698,0.65-1.709c0,0,0.715-19.97,0-23.298c-0.714-3.328-2.586-11.244-7.221-11.873
			C189.209,452.078,190.578,454.194,190.578,454.194z"/>
		<path fill="#976B23" d="M197.186,437.647c-2.754-0.895-5.719,0.614-6.615,3.371c-0.893,2.754,0.618,5.721,3.371,6.615
			c2.759,0.896,5.721-0.618,6.617-3.372C201.454,441.505,199.943,438.543,197.186,437.647z M194.676,445.375
			c-1.51-0.49-2.337-2.113-1.847-3.623c0.493-1.516,2.113-2.336,3.622-1.846c1.512,0.491,2.34,2.106,1.848,3.622
			C197.809,445.039,196.188,445.866,194.676,445.375z"/>
		<circle fill="#C68D22" cx="194.783" cy="425.075" r="4.607"/>
		<circle fill="#C68D22" cx="194.917" cy="450.955" r="4.607"/>
		<path fill="#C68D22" d="M191.931,427.267c0,0,0.96,5.438-9.051,9.152c-10.012,3.714,5.68,3.553,7.544,4.288
			c1.864,0.737,7.842-3.44,1.484-6.781C191.908,433.926,196.218,430.367,191.931,427.267z"/>
		<path fill="#C68D22" d="M197.607,426.733c0,0-0.732,5.478,9.427,8.768c10.162,3.297-5.529,3.791-7.358,4.599
			c-1.826,0.815-7.979-3.113-1.771-6.715C197.904,433.387,193.452,430.012,197.607,426.733z"/>
		<path fill="#976B23" d="M197.904,433.387c0,0,1.729,2.033,5.25,2.52C203.148,435.904,199.963,437.219,197.904,433.387z"/>
	</g>
</g>
<g id="deco">
	<g>
		<path fill="#F9EFCD" stroke="#D1A415" stroke-width="5" stroke-miterlimit="10" d="M370.667,368.817
			c-0.03,0.101-0.059,0.186-0.088,0.284c0.622,0.825,0.995,0.223,0.088-3.063c-0.544-0.077-0.971-0.036-1.313,0.075
			c0.303,1.235,0.735,2.252,1.108,2.823C370.53,368.896,370.597,368.869,370.667,368.817z"/>
		<path fill="#F9EFCD" stroke="#D1A415" stroke-width="5" stroke-miterlimit="10" d="M370.667,75.388
			c-4.74-20.592,4.784-29.209,0-29.864c6.241-8.453-0.535-25.289,0-28.302c-11.121-2.898-1.001-9.98,0-26.218
			c-1.733-10.609-8.323-12.666,0-23.613c-0.435-1.419-0.544-3.77-0.511-6.482H19.333c0,2.114,0,4.271,0,6.482
			c-1.986,7.139-0.77,17.081,0,23.613c10.774,5.399-1.813,25.518,0,26.217c-5.635,12.858,5.21,25.248,0,28.302
			c-5.936,8.227,7.773,14.604,0,29.863c4.964,7.421,1.448,23.211,0,30.906c-3.975,10.44-2.104,22.938,0,31.426
			c-8.389,13.45-4.536,17.19,0,31.427c8.573,4.167,2.713,17.104,0,30.905c10.855,6.907,12.424,15.181,0,29.865
			c-6.935,12.891-4.062,23.652,0,28.301c4.608,9.892,8.697,10.264,0,26.218c3.782,16.671-2.294,11.498,0,23.613
			c-12.167,14.908,3.504,7.654,0,20.488c3.292,0.277,0.348,14.721-0.042,16.857c-10.912,3.891-3.788,6.838,0.042,12.659
			c7.13-2.254-0.073,3.007-0.855,6.183c-1.683-2.456-4.092-1.841,0.855,4.582c-7.11,7.863-0.326,12.002,6.443,13.845
			c12.46-0.626,9.357,8.517,15.557,5.735c-2.209-6.811,4.73-0.224,5.176,0c3.656,8.62,10.014-5.316,14.409,0
			c1.525,7.004,8.316-7.066,21.962,0c13.803-9.834,23.632,5.667,27.838,0c16.57-0.096,19.217,3.305,32.034,0
			c9.067-7.842,11.511,0.93,34.552,0c4.826-0.316,18.636-1.118,35.392,0c15.179-4.052,25.36,7.027,34.552,0
			c3.287-1.303,25.401-0.942,32.034,0c19.996,12.885,13.13-0.854,27.838,0c16.551,7.159,22.784,12.088,21.963,0
			c11.845,8.983,14.269,2.699,14.54,0.452c2.304,0.305,7.305,0.464,5.044-0.452c13.542,3.183,0.292,1.532,15.557-5.735
			c3.469-11.783,1.776,1.317,6.355-13.561c-0.039-0.05-0.077-0.104-0.117-0.164c-1.902,1.123-3.123-2.17-1.108-2.823
			c-0.604-2.46-0.683-5.768,1.313-8.062c-1.885-1.848-6.298-11.832,0-12.675c-1.147-7.528,4.487-5.937,0-16.842
			c-0.596-2.895-4.754-17.718,0-20.488c1.708-10.799-3.853-17.474,0-23.613c-3.36-3.449,0.484-12.511,0-26.218
			c-3.604-0.912-2.836-14.229,0-28.301c-2.502-13.737,1.76-25.081,0-29.865c-8.162-10.513-2.808-25.585,0-30.905
			c-9.157-13.682-4.971-22.243,0-31.427c-5.996-15.354-2.521-25.727,0-31.426C381.21,95.855,361.323,82.652,370.667,75.388z"/>
	</g>
</g>
</svg>
