<?xml version="1.0" encoding="utf-8"?>
<!-- Generator: Adobe Illustrator 16.0.0, SVG Export Plug-In . SVG Version: 6.00 Build 0)  -->
<!DOCTYPE svg PUBLIC "-//W3C//DTD SVG 1.1//EN" "http://www.w3.org/Graphics/SVG/1.1/DTD/svg11.dtd">
<svg version="1.1" id="Calque_1" xmlns="http://www.w3.org/2000/svg" xmlns:xlink="http://www.w3.org/1999/xlink" x="0px" y="0px"
	 width="390px" height="631.5px" viewBox="0 0 390 631.5" enable-background="new 0 0 390 631.5" xml:space="preserve">
<g>
	<g id="fond">
		<path fill="#BB4139" d="M373.168,545.372c0,15.803-167.647,24.43-177.529,24.43h-2.203c-9.881,0-177.154-9.479-177.154-25.282l0,0
			c0-15.802,6.057-57.248,15.938-57.248h325.562C367.663,487.271,373.168,529.57,373.168,545.372L373.168,545.372z"/>
		<path fill="#F9EFCD" stroke="#BB4139" stroke-width="5" stroke-miterlimit="10" d="M375.674,537.649
			c0,8.876-9.127,16.069-20.384,16.069H34.711c-11.258,0-20.384-7.193-20.384-16.069V35.423c0-8.875,9.126-16.069,20.384-16.069
			H355.29c11.257,0,20.384,7.195,20.384,16.069V537.649z"/>
		<g>
			<path fill="#69655D" d="M190.904,594.044c0,0-4.502,11.715-1.827,26.393c0,0,1.076,2.322-1.103,4.419c0,0,2.631-2.32,2.346-2.62
				c-0.288-0.301,0.792,0.897,0.579,1.947c-0.209,1.049,0.627,1.196,0.743,0.675c0.111-0.525,0.64-1.273,1.436,1.048
				c0,0,1.456,2.246,1.588,2.921c0,0,0.686-2.321,1.139-3.069c0.451-0.75,1.112,0.672,1.112,0.672v-1.195l1.456,0.599l1.646-1.947
				c0,0,0-0.748,0-0.374s-0.059-2.246,0.602-1.423c0,0,0.664-16.624,0-19.395c-0.661-2.771-2.396-9.36-6.69-9.884
				C189.635,592.282,190.904,594.044,190.904,594.044z"/>
			<path fill="#976B23" d="M197.026,580.269c-2.552-0.746-5.299,0.51-6.129,2.807c-0.827,2.293,0.573,4.762,3.123,5.506
				c2.557,0.746,5.302-0.514,6.132-2.807C200.981,583.48,199.58,581.016,197.026,580.269z M194.7,586.701
				c-1.399-0.407-2.166-1.758-1.711-3.016c0.456-1.262,1.957-1.943,3.355-1.537c1.401,0.409,2.169,1.754,1.712,3.016
				C197.604,586.422,196.102,587.11,194.7,586.701z"/>
			<ellipse fill="#C68D22" cx="194.8" cy="569.802" rx="4.269" ry="3.835"/>
			<ellipse fill="#C68D22" cx="194.924" cy="591.346" rx="4.268" ry="3.835"/>
			<path fill="#C68D22" d="M192.156,571.628c0,0,0.889,4.526-8.386,7.618c-9.276,3.091,5.263,2.957,6.99,3.569
				c1.728,0.614,7.266-2.864,1.375-5.646C192.136,577.17,196.128,574.207,192.156,571.628z"/>
			<path fill="#C68D22" d="M197.416,571.184c0,0-0.679,4.559,8.734,7.299c9.415,2.744-5.122,3.155-6.817,3.827
				c-1.692,0.679-7.394-2.591-1.642-5.589C197.691,576.723,193.567,573.912,197.416,571.184z"/>
			<path fill="#976B23" d="M197.691,576.723c0,0,1.603,1.691,4.865,2.097C202.55,578.817,199.6,579.912,197.691,576.723z"/>
		</g>
	</g>
	<g id="deco">
		<g>
			<path fill="#F9EFCD" stroke="#D1A415" stroke-miterlimit="10" d="M357.76,178.98c-4.391-18.072,4.434-25.634,0-26.209
				c5.783-7.418-0.494-22.193,0-24.838c-10.303-2.543-0.927-51.271,0-65.522c-1.604-9.311-7.71-11.116,0-20.723
				c-0.401-1.245-0.503-3.309-0.473-5.689H32.24c0,1.855,0,3.749,0,5.689c-1.84,6.265-0.714,14.99,0,20.723
				c9.982,4.738-1.68,64.907,0,65.521c-5.222,11.284,4.827,22.158,0,24.838c-5.5,7.22,7.201,12.816,0,26.208
				c4.599,6.513,1.341,20.371,0,27.124c-3.684,9.163-1.95,20.131,0,27.58c-7.773,11.804-4.203,36.938,0,49.433
				c7.942,3.656,2.514,15.01,0,27.123c10.057,6.062,11.511,13.322,0,26.21c-6.426,11.313-3.764,20.755,0,24.837
				c4.269,8.681,8.057,40.446,0,54.447c3.504,14.632-2.125,10.091,0,20.725c-11.273,13.083,3.247,6.718,0,17.98
				c3.05,0.242,0.322,12.918-0.039,14.794c-10.11,3.413-3.51,6,0.039,11.109c6.606-1.98-0.068,2.64-0.793,5.426
				c-1.559-2.157-3.791,30.35,0.793,35.986c-6.588,6.902-0.302,10.534,5.969,12.15c11.545-0.548,8.67,7.476,14.415,5.033
				c-2.047-5.978,4.382-0.195,4.795,0c3.388,7.565,9.278-4.666,13.351,0c1.413,6.148,7.704-6.199,20.348,0
				c12.789-8.629,21.896,4.974,25.793,0c15.353-0.083,17.805,2.901,29.68,0c8.4-6.88,10.665,0.817,32.013,0
				c4.472-0.278,17.267-0.982,32.792,0c14.064-3.557,23.497,6.166,32.015,0c3.046-1.144,23.534-0.826,29.681,0
				c18.526,11.309,12.165-0.749,25.791,0c15.337,6.283,21.111,10.61,20.352,0c10.974,7.884,13.219,2.37,13.472,0.396
				c2.134,0.268,6.768,0.408,4.672-0.396c12.548,2.793,0.271,1.345,14.415-5.033c3.214-10.341,1.645,1.156,5.888-11.901
				c-0.036-0.044-0.071-0.092-0.108-0.145c-1.763,0.987-2.894-33.87-1.026-34.442c-0.56-2.158-0.633-5.062,1.216-7.074
				c-1.746-1.623-5.835-10.385,0-11.124c-1.063-6.607,4.157-5.21,0-14.781c-0.553-2.542-4.405-15.55,0-17.98
				c1.583-9.478-3.569-15.335,0-20.723c-3.113-3.027,0.448-42.421,0-54.449c-3.339-0.802-2.628-12.487,0-24.837
				c-2.318-12.057,1.632-22.013,0-26.21c-7.562-9.227-2.602-22.454,0-27.123c-8.484-12.007-4.605-41.373,0-49.432
				c-5.555-13.476-2.336-22.579,0-27.58C367.531,196.943,349.104,185.355,357.76,178.98z"/>
		</g>
	</g>
</g>
<g>
	<path stroke="#000000" stroke-miterlimit="10" d="M16.157,36.038c0,4.202-3.64,7.607-8.129,7.607l0,0
		c-4.49,0-8.129-3.405-8.129-7.607V22.515c0-4.202,3.639-7.607,8.129-7.607l0,0c4.489,0,8.129,3.405,8.129,7.607V36.038z"/>
	<path stroke="#000000" stroke-miterlimit="10" d="M390.102,36.038c0,4.202-3.639,7.607-8.129,7.607l0,0
		c-4.491,0-8.13-3.405-8.13-7.607V22.515c0-4.202,3.639-7.607,8.13-7.607l0,0c4.49,0,8.129,3.405,8.129,7.607V36.038z"/>
	<rect x="8.029" y="3.919" fill="#F4DE9F" width="373.944" height="50.714"/>
	<path fill="#C58C22" d="M46.146,19.134c0-2.801-2.427-5.073-5.419-5.073c2.992,0,5.419-2.271,5.419-5.071
		c0-2.8-2.427-5.072-5.419-5.072H29.887c-2.994,0-5.419,2.271-5.419,5.072s2.426,5.071,5.419,5.071
		c-2.994,0-5.419,2.271-5.419,5.073c0,2.8,2.426,5.071,5.419,5.071c-2.994,0-5.419,2.271-5.419,5.071
		c0,2.801,2.426,5.072,5.419,5.072c-2.994,0-5.419,2.271-5.419,5.07c0,2.803,2.426,5.073,5.419,5.073
		c-2.994,0-5.419,2.271-5.419,5.07c0,2.802,2.426,5.073,5.419,5.073h10.839c2.992,0,5.419-2.271,5.419-5.073
		c0-2.799-2.427-5.07-5.419-5.07c2.992,0,5.419-2.271,5.419-5.073c0-2.799-2.427-5.07-5.419-5.07c2.992,0,5.419-2.271,5.419-5.072
		c0-2.8-2.427-5.071-5.419-5.071C43.719,24.206,46.146,21.935,46.146,19.134z"/>
	<path fill="#C58C22" d="M366.256,19.611c0-2.801-2.426-5.073-5.42-5.073c2.994,0,5.42-2.271,5.42-5.071
		c0-2.8-2.426-5.072-5.42-5.072h-10.839c-2.994,0-5.419,2.271-5.419,5.072s2.425,5.071,5.419,5.071
		c-2.994,0-5.419,2.271-5.419,5.073c0,2.8,2.425,5.072,5.419,5.072c-2.994,0-5.419,2.271-5.419,5.069
		c0,2.801,2.425,5.074,5.419,5.074c-2.994,0-5.419,2.271-5.419,5.07c0,2.802,2.425,5.074,5.419,5.074
		c-2.994,0-5.419,2.271-5.419,5.07c0,2.802,2.425,5.072,5.419,5.072h10.839c2.994,0,5.42-2.27,5.42-5.072
		c0-2.798-2.426-5.07-5.42-5.07c2.994,0,5.42-2.271,5.42-5.074c0-2.799-2.426-5.07-5.42-5.07c2.994,0,5.42-2.273,5.42-5.074
		c0-2.799-2.426-5.069-5.42-5.069C363.83,24.682,366.256,22.411,366.256,19.611z"/>
	<path fill="#BB4139" d="M38.247,54.634c2.992,0,5.419-2.271,5.419-5.072c0-2.798-2.427-5.07-5.419-5.07
		c2.992,0,5.419-2.271,5.419-5.072c0-2.799-2.427-5.07-5.419-5.07c2.992,0,5.419-2.272,5.419-5.072c0-2.801-2.427-5.072-5.419-5.072
		c2.992,0,5.419-2.271,5.419-5.071s-2.427-5.072-5.419-5.072c2.992,0,5.419-2.271,5.419-5.071s-2.427-5.072-5.419-5.072h-5.881
		c-2.994,0-5.419,2.271-5.419,5.072s2.426,5.071,5.419,5.071c-2.994,0-5.419,2.271-5.419,5.072s2.426,5.071,5.419,5.071
		c-2.994,0-5.419,2.27-5.419,5.072c0,2.8,2.426,5.072,5.419,5.072c-2.994,0-5.419,2.271-5.419,5.07c0,2.801,2.426,5.072,5.419,5.072
		c-2.994,0-5.419,2.272-5.419,5.07c0,2.802,2.426,5.072,5.419,5.072H38.247z"/>
	<path fill="#BB4139" d="M358.358,55.11c2.992,0,5.419-2.271,5.419-5.072c0-2.797-2.427-5.07-5.419-5.07
		c2.992,0,5.419-2.271,5.419-5.073c0-2.799-2.427-5.07-5.419-5.07c2.992,0,5.419-2.272,5.419-5.071c0-2.801-2.427-5.072-5.419-5.072
		c2.992,0,5.419-2.271,5.419-5.071s-2.427-5.071-5.419-5.071c2.992,0,5.419-2.271,5.419-5.071s-2.427-5.072-5.419-5.072h-5.882
		c-2.992,0-5.42,2.271-5.42,5.072s2.428,5.071,5.42,5.071c-2.992,0-5.42,2.271-5.42,5.071s2.428,5.071,5.42,5.071
		c-2.992,0-5.42,2.27-5.42,5.072c0,2.799,2.428,5.071,5.42,5.071c-2.992,0-5.42,2.271-5.42,5.07c0,2.802,2.428,5.073,5.42,5.073
		c-2.992,0-5.42,2.273-5.42,5.07c0,2.801,2.428,5.072,5.42,5.072H358.358z"/>
	<g>
		<path fill="#BB4139" d="M61.5,53.865c0,1.484-1.132,2.688-2.529,2.688l0,0c-1.397,0-2.529-1.205-2.529-2.688V4.689
			C56.443,3.203,57.575,2,58.971,2l0,0C60.369,2,61.5,3.204,61.5,4.689V53.865z"/>
		<path fill="#BB4139" d="M13.087,53.865c0,1.484-1.133,2.688-2.529,2.688l0,0c-1.397,0-2.529-1.205-2.529-2.688V4.689
			C8.03,3.203,9.162,2,10.558,2l0,0c1.397,0,2.529,1.204,2.529,2.689V53.865z"/>
		<path fill="#BB4139" d="M333.559,53.865c0,1.484-1.133,2.688-2.529,2.688l0,0c-1.397,0-2.531-1.205-2.531-2.688V4.689
			c0-1.486,1.134-2.689,2.531-2.689l0,0c1.396,0,2.529,1.204,2.529,2.689V53.865z"/>
		<path fill="#BB4139" d="M381.973,53.865c0,1.484-1.134,2.688-2.531,2.688l0,0c-1.396,0-2.529-1.205-2.529-2.688V4.689
			c0-1.486,1.133-2.689,2.529-2.689l0,0c1.397,0,2.531,1.204,2.531,2.689V53.865z"/>
	</g>
</g>
</svg>
