<?xml version="1.0" encoding="utf-8"?>
<!-- Generator: Adobe Illustrator 16.0.0, SVG Export Plug-In . SVG Version: 6.00 Build 0)  -->
<!DOCTYPE svg PUBLIC "-//W3C//DTD SVG 1.1//EN" "http://www.w3.org/Graphics/SVG/1.1/DTD/svg11.dtd">
<svg version="1.1" id="Calque_1" xmlns="http://www.w3.org/2000/svg" xmlns:xlink="http://www.w3.org/1999/xlink" x="0px" y="0px"
	 width="60px" height="60px" viewBox="0 0 60 60" enable-background="new 0 0 60 60" xml:space="preserve">
<rect fill="#FFFFFF" stroke="#000000" stroke-miterlimit="10" width="60" height="60"/>
<g>
	<g>
		<g>
			<path fill="#E52420" d="M44.862,33.722c2.294,0,7.123-11.333,7.123-11.333C55.588,12.623,47.6,2.949,47.6,2.949
				c-1.047,9.241-13.198,16.785-13.198,16.785C39.376,29.375,44.862,33.722,44.862,33.722z"/>
			<g>
				<g>
					<path fill="#1D1D1D" d="M44.862,33.722c0.531,0.075,0.988-0.201,1.356-0.466c0.378-0.285,0.72-0.643,1.083-1.138
						c0.095-0.136,0.236-0.34,0.412-0.594c0.084-0.129,0.176-0.27,0.274-0.421c0.109-0.176,0.221-0.355,0.333-0.537
						c0.122-0.206,0.246-0.415,0.372-0.626c0.246-0.426,0.491-0.867,0.735-1.322c0.975-1.819,1.941-3.839,2.867-5.957
						c0.841-2.243,1.14-4.686,0.938-7.044c-0.408-4.743-2.522-8.857-4.354-11.57c-0.118-0.17-0.232-0.336-0.345-0.499l-0.258-0.35
						c-0.111-0.148-0.223-0.293-0.332-0.438c-0.109-0.138-0.218-0.274-0.324-0.408l-0.161-0.201
						c-0.023-0.018-0.063-0.102-0.072-0.065L47.364,2.21c-0.067,0.332-0.133,0.654-0.196,0.965c-0.08,0.414-0.155,0.8-0.225,1.156
						c-0.033,0.272-0.142,0.505-0.204,0.722c-0.142,0.431-0.253,0.768-0.328,0.997c-0.071,0.23-0.14,0.342-0.14,0.341
						c0,0-0.224,0.484-0.635,1.374c-0.249,0.424-0.555,0.945-0.912,1.554c-0.418,0.571-0.835,1.267-1.423,1.955
						c-1.114,1.417-2.613,3.009-4.474,4.618c-0.923,0.812-1.947,1.615-3.043,2.417c-0.276,0.195-0.557,0.393-0.84,0.593
						l-0.432,0.291l-0.425,0.274c-0.064,0.051-0.177,0.09-0.201,0.15l0.129,0.231c0.384,0.689,0.775,1.392,1.174,2.106
						c0.407,0.742,0.839,1.525,1.357,2.291c0.511,0.77,0.99,1.595,1.562,2.372c0.577,0.772,1.127,1.578,1.733,2.331
						c0.307,0.374,0.612,0.745,0.916,1.114l0.452,0.549l0.146,0.16c0.488,0.531,0.919,1.001,1.137,1.238
						C43.346,32.869,43.936,33.266,44.862,33.722c-0.604-0.836-0.979-1.401-1.806-2.251c-0.213-0.233-0.634-0.695-1.11-1.218
						l-0.143-0.156l-0.445-0.541c-0.297-0.362-0.598-0.728-0.899-1.095c-0.597-0.74-1.138-1.535-1.706-2.295
						c-0.563-0.765-1.036-1.58-1.54-2.338c-0.512-0.754-0.938-1.528-1.34-2.26c-0.321-0.577-0.639-1.145-0.949-1.702
						c0.009-0.013-0.026,0.016,0.021-0.017l0.443-0.299c0.289-0.204,0.574-0.406,0.857-0.605c1.116-0.817,2.156-1.634,3.097-2.461
						c1.895-1.638,3.426-3.264,4.572-4.723c0.603-0.706,1.038-1.427,1.467-2.018c0.371-0.632,0.688-1.174,0.947-1.615
						c0.431-0.932,0.664-1.438,0.664-1.438s0.07-0.116,0.147-0.359c0.08-0.242,0.197-0.598,0.347-1.053
						c0.067-0.23,0.179-0.474,0.217-0.765c0.027-0.143,0.055-0.292,0.084-0.447l0.033-0.177l0,0l-0.001,0h-0.001v0l0.081,0.112
						c0.108,0.157,0.22,0.319,0.333,0.484c1.783,2.636,3.835,6.659,4.22,11.196c0.196,2.247-0.105,4.599-0.878,6.668
						c-0.915,2.094-1.878,4.105-2.838,5.897c-0.24,0.448-0.481,0.882-0.723,1.3c-0.123,0.207-0.244,0.412-0.363,0.613
						c-0.109,0.177-0.218,0.352-0.324,0.523c-0.095,0.146-0.184,0.283-0.265,0.407c-0.167,0.244-0.302,0.44-0.392,0.571
						c-0.329,0.458-0.587,0.817-0.853,1.187C45.554,33.178,45.345,33.54,44.862,33.722z"/>
				</g>
			</g>
		</g>
		<g>
			<path fill="#E52420" d="M25.6,19.734c0,0-12.152-7.544-13.198-16.785c0,0-7.989,9.673-4.386,19.439c0,0,4.83,11.333,7.124,11.333
				C15.139,33.722,20.625,29.375,25.6,19.734z"/>
			<g>
				<g>
					<path fill="#1D1D1D" d="M25.6,19.734c-0.706-0.752-1.174-1.248-2.12-1.967c-0.128-0.098-0.319-0.245-0.557-0.427
						c-0.117-0.094-0.245-0.197-0.382-0.307c-0.158-0.127-0.319-0.256-0.482-0.387c-0.179-0.151-0.361-0.305-0.545-0.461
						c-0.367-0.313-0.747-0.633-1.114-0.983c-1.495-1.369-3.033-2.97-4.367-4.799c-1.33-1.823-2.457-3.898-2.976-6.084l-0.208-1.073
						l-0.166-0.819l-0.042-0.204l-0.021-0.102c-0.005-0.043-0.013-0.073-0.04-0.023L12.323,2.42
						c-0.169,0.217-0.34,0.416-0.507,0.648L11.43,3.593l-0.481,0.706c-0.614,0.949-1.176,1.898-1.648,2.846
						c-0.963,1.886-1.619,3.734-2.013,5.344c-0.419,1.607-0.525,2.982-0.566,3.933c-0.042,0.476-0.02,0.849-0.003,1.103
						c0.012,0.254,0.019,0.388,0.019,0.388s0.006,0.134,0.019,0.388c0.001,0.255,0.031,0.626,0.125,1.097
						c0.131,0.938,0.417,2.317,1.081,3.844c0.666,1.495,1.481,3.239,2.462,5.098c0.494,0.929,1.027,1.886,1.636,2.84
						c0.307,0.477,0.63,0.952,0.995,1.415c0.372,0.459,0.756,0.923,1.343,1.286c0.069,0.048,0.152,0.087,0.244,0.121
						c0.088,0.035,0.162,0.073,0.328,0.088c0.14,0.007,0.302,0.093,0.399-0.05l0.248-0.206l0.661-0.597
						c0.423-0.412,0.847-0.824,1.256-1.25l1.191-1.303c0.374-0.451,0.746-0.901,1.115-1.347c0.761-0.877,1.383-1.837,2.054-2.721
						c0.34-0.44,0.616-0.913,0.912-1.361c0.28-0.436,0.555-0.863,0.824-1.281c0.447-0.662,0.746-1.245,0.907-1.529
						C25.117,21.388,25.333,20.723,25.6,19.734c-0.708,0.76-1.155,1.283-1.74,2.32c-0.161,0.279-0.458,0.854-0.899,1.505
						c-0.265,0.412-0.536,0.834-0.813,1.263c-0.292,0.441-0.563,0.909-0.898,1.341c-0.661,0.87-1.273,1.818-2.021,2.679
						c-0.363,0.439-0.729,0.881-1.096,1.325l-1.168,1.277c-0.399,0.416-0.813,0.818-1.224,1.22l-0.635,0.573l-0.086,0.072l0,0.001
						c0.019,0.008-0.038-0.019-0.084-0.037c-0.046-0.015-0.094-0.035-0.144-0.071c-0.819-0.536-1.479-1.554-2.07-2.446
						c-0.592-0.924-1.117-1.868-1.604-2.783c-0.969-1.835-1.78-3.568-2.44-5.048c-0.633-1.463-0.894-2.737-1.022-3.639
						c-0.09-0.447-0.118-0.801-0.119-1.043c-0.012-0.242-0.018-0.37-0.018-0.37s-0.006-0.128-0.018-0.37
						c-0.015-0.242-0.038-0.597,0.004-1.052c0.04-0.908,0.14-2.225,0.545-3.774C8.427,11.125,9.062,9.334,10,7.5
						c0.458-0.922,1.007-1.847,1.604-2.769l0.467-0.684l0.113-0.156l-0.001,0.001l-0.001,0.002
						c-0.001,0.003-0.001-0.001-0.002-0.002l0-0.001l0.032,0.171L12.293,4.5c0.554,2.325,1.733,4.484,3.104,6.365
						c1.377,1.886,2.949,3.521,4.473,4.917c0.375,0.356,0.762,0.682,1.136,1.001c0.188,0.159,0.373,0.315,0.555,0.469
						c0.166,0.133,0.33,0.265,0.491,0.394c0.14,0.112,0.27,0.216,0.389,0.312c0.243,0.184,0.438,0.333,0.569,0.432
						C23.978,19.111,24.622,19.4,25.6,19.734z"/>
				</g>
			</g>
		</g>
	</g>
	<g>
		<path fill="#FFFFFF" d="M45.576,33.816L45.576,33.816c0-8.122-7.403-14.706-15.523-14.706c-8.122,0-15.525,6.583-15.525,14.706
			c0,0-0.658,10.337,8.932,19.925c0,0,4.204,3.579,6.594,3.579c2.388,0,6.593-3.579,6.593-3.579
			C46.234,44.153,45.576,33.816,45.576,33.816z"/>
		<g>
			<g>
				<path fill="#1D1D1D" d="M45.576,33.816c0.097-0.5,0.168-0.933,0.207-1.394c0.021-0.458-0.048-0.938-0.142-1.548
					c-0.022-0.166-0.106-0.404-0.187-0.704c-0.043-0.149-0.089-0.313-0.14-0.489l-0.116-0.396l-0.205-0.508
					c-0.146-0.337-0.261-0.696-0.439-1.03c-0.177-0.334-0.356-0.673-0.538-1.017c-0.19-0.338-0.425-0.655-0.64-0.989
					c-0.908-1.302-2.048-2.529-3.393-3.582c-1.358-1.033-2.909-1.891-4.584-2.49c-1.675-0.598-3.474-0.943-5.287-0.951
					c-1.813,0.004-3.62,0.325-5.308,0.916s-3.263,1.442-4.636,2.49c-1.364,1.06-2.527,2.302-3.451,3.631
					c-1.883,2.652-2.591,5.721-2.588,8.211c-0.006,2.538,0.445,4.552,0.796,5.938c0.372,1.381,0.645,2.14,0.645,2.14
					c0,0,0.069,0.188,0.2,0.546c0.127,0.358,0.317,0.884,0.615,1.533c0.546,1.319,1.49,3.156,2.903,5.21
					c0.69,1.038,1.549,2.094,2.495,3.183c0.51,0.531,0.957,1.065,1.561,1.638c0.594,0.486,1.216,0.959,1.876,1.415
					c0.66,0.454,1.352,0.896,2.1,1.285c0.75,0.38,1.546,0.749,2.5,0.838c0.988,0.07,1.841-0.313,2.642-0.68
					c0.801-0.39,1.555-0.855,2.289-1.354c0.735-0.503,1.437-1.029,2.139-1.611c0.646-0.69,1.236-1.308,1.837-1.984
					c1.137-1.375,2.226-2.795,3.116-4.315c0.938-1.49,1.665-3.075,2.3-4.637c0.298-0.79,0.58-1.573,0.801-2.361
					c0.127-0.389,0.221-0.783,0.314-1.173l0.144-0.582l0.099-0.488c0.165-0.787,0.249-1.443,0.295-1.77
					C45.934,35.529,45.849,34.813,45.576,33.816c-0.227,1.005-0.409,1.651-0.553,2.822c-0.048,0.315-0.131,0.949-0.291,1.713
					l-0.097,0.475l-0.139,0.564c-0.092,0.379-0.183,0.762-0.307,1.141c-0.214,0.766-0.488,1.527-0.778,2.296
					c-0.618,1.52-1.325,3.063-2.24,4.516c-0.867,1.481-1.93,2.867-3.04,4.211c-0.568,0.644-1.203,1.302-1.756,1.901
					c-0.653,0.544-1.358,1.074-2.066,1.557c-0.71,0.484-1.438,0.933-2.188,1.297c-0.742,0.349-1.532,0.669-2.246,0.603
					c-0.733-0.063-1.493-0.39-2.193-0.75c-0.705-0.368-1.375-0.793-2.015-1.234c-0.64-0.442-1.25-0.905-1.824-1.375
					c-0.486-0.465-0.998-1.055-1.474-1.554c-0.924-1.063-1.763-2.093-2.437-3.106c-1.378-2.003-2.299-3.791-2.83-5.075
					c-0.291-0.633-0.475-1.145-0.599-1.493c-0.127-0.347-0.195-0.53-0.195-0.53s-0.265-0.739-0.626-2.081
					c-0.342-1.336-0.777-3.325-0.771-5.722c0.002-2.407,0.663-5.255,2.451-7.787c0.877-1.261,1.983-2.444,3.283-3.454
					c1.309-0.999,2.811-1.809,4.418-2.372c1.608-0.563,3.326-0.868,5.045-0.872c1.721,0.008,3.432,0.337,5.025,0.906
					c1.596,0.57,3.074,1.388,4.368,2.372c1.28,1.003,2.364,2.171,3.227,3.407c0.203,0.317,0.427,0.617,0.607,0.938
					c0.172,0.325,0.343,0.646,0.51,0.962c0.17,0.315,0.276,0.655,0.415,0.974l0.195,0.48l0.109,0.373
					c0.047,0.166,0.092,0.32,0.132,0.461c0.076,0.283,0.158,0.507,0.18,0.663c0.094,0.574,0.228,1.014,0.335,1.439
					C45.304,32.91,45.423,33.316,45.576,33.816z"/>
			</g>
		</g>
	</g>
	<g>
		<g>
			<g>
				<g>
					<path fill="#1D1D1D" d="M30.051,50.621c-0.354,0.394-0.562,0.738-0.906,1.007c-0.286,0.312-0.639,0.563-1.07,0.904
						c-0.082,0.045-0.188,0.105-0.343,0.192c-0.155,0.088-0.35,0.222-0.657,0.303c-0.162,0.041-0.366,0.15-0.607,0.181
						c-0.241,0.032-0.499,0.066-0.737,0.098c-0.24-0.015-0.458-0.028-0.617-0.038c-0.159-0.006-0.258-0.015-0.257-0.021
						c0,0-0.321-0.087-0.73-0.198c-0.393-0.146-0.832-0.396-1.099-0.64c-0.612-0.55-0.824-1.04-0.932-1.275
						c-0.36-1.007-0.482-1.634-0.412-2.663c-0.546,0.857-0.756,1.723-0.308,2.962c0.13,0.29,0.385,0.895,1.14,1.571
						c0.328,0.302,0.874,0.611,1.349,0.783c0.483,0.128,0.862,0.229,0.862,0.229c-0.001,0.007,0.114,0.02,0.302,0.03
						c0.188,0.011,0.446,0.027,0.729,0.044c0.281-0.025,0.586-0.073,0.871-0.111c0.284-0.039,0.526-0.16,0.716-0.213
						c0.36-0.102,0.591-0.255,0.773-0.358c0.182-0.104,0.306-0.177,0.401-0.232C29.56,52.394,29.863,51.613,30.051,50.621z"/>
				</g>
			</g>
		</g>
		<g>
			<g>
				<g>
					<path fill="#1D1D1D" d="M30.051,50.621c0.188,0.992,0.492,1.772,1.534,2.553c0.095,0.056,0.22,0.128,0.401,0.232
						c0.182,0.104,0.413,0.257,0.773,0.357c0.189,0.054,0.432,0.175,0.716,0.214c0.283,0.038,0.589,0.086,0.87,0.111
						c0.283-0.017,0.541-0.033,0.729-0.044c0.188-0.011,0.304-0.023,0.303-0.03c0,0,0.379-0.1,0.861-0.229
						c0.476-0.172,1.021-0.481,1.35-0.783c0.754-0.677,1.01-1.281,1.14-1.571c0.449-1.238,0.24-2.104-0.306-2.962
						c0.069,1.029-0.054,1.656-0.414,2.663c-0.109,0.235-0.32,0.725-0.933,1.275c-0.268,0.244-0.707,0.493-1.099,0.64
						c-0.41,0.111-0.73,0.198-0.73,0.198c0.001,0.007-0.098,0.016-0.257,0.021c-0.159,0.01-0.378,0.023-0.617,0.038
						c-0.238-0.031-0.497-0.065-0.738-0.098c-0.241-0.03-0.445-0.14-0.606-0.182c-0.308-0.08-0.502-0.214-0.657-0.302
						c-0.155-0.087-0.262-0.147-0.343-0.193c-0.431-0.34-0.784-0.592-1.07-0.903C30.613,51.359,30.406,51.015,30.051,50.621z"/>
				</g>
			</g>
		</g>
	</g>
	<g>
		<g>
			<g>
				<path fill="#E52420" d="M15.282,31.862c0,0,11.194-0.061,11.194,13.192C26.476,45.055,28.266,41.776,15.282,31.862z"/>
				<g>
					<g>
						<path fill="#E83D39" d="M15.282,31.862c0.987,0.296,1.607,0.532,2.728,0.838c0.15,0.047,0.375,0.116,0.655,0.203
							c0.136,0.054,0.285,0.112,0.444,0.176c0.323,0.118,0.729,0.295,1.097,0.503c1.534,0.782,3.111,2.16,4.076,3.858
							c0.978,1.691,1.413,3.545,1.607,4.914c0.137,0.681,0.095,1.265,0.14,1.659c0.021,0.398,0.034,0.623,0.034,0.623
							s0.001,0.015,0.009,0.157c0.002,0.035,0.004,0.079,0.007,0.132c0.001,0.027,0.003,0.057,0.005,0.088l0.001,0.024l0.001,0.013
							v0.003v0.001c0.327,0.083-0.731-0.187,0.732,0.187l0-0.001l0.001-0.002l0.004-0.011l0.032-0.085
							c0.1-0.263,0.059-0.451,0.085-0.787l0,0c-0.02-0.094-0.085-0.396-0.185-0.859c-0.149-0.433-0.412-0.982-0.737-1.614
							c-0.405-0.567-0.824-1.269-1.365-1.938c-0.568-0.644-1.177-1.333-1.796-2.035c-0.666-0.65-1.365-1.288-2.032-1.919
							c-0.335-0.314-0.665-0.623-0.985-0.924c-0.296-0.264-0.763-0.625-0.816-0.674c-0.561-0.453-1.022-0.826-1.26-1.018
							C16.827,32.621,16.211,32.295,15.282,31.862c0.626,0.828,1.067,1.359,1.99,2.116c0.235,0.19,0.69,0.562,1.245,1.013
							c0.053,0.048,0.515,0.406,0.808,0.667c0.315,0.296,0.64,0.601,0.969,0.909c0.657,0.62,1.334,1.26,2,1.889
							c0.603,0.682,1.195,1.352,1.748,1.977c0.521,0.646,0.912,1.304,1.301,1.843c0.294,0.575,0.536,1.078,0.666,1.446
							c0.083,0.374,0.138,0.617,0.155,0.693l0,0c-0.021,0.183-0.007,0.406-0.028,0.43l-0.001,0.02v0.003l0,0v0.001
							c1.464,0.373,0.406,0.103,0.732,0.187v-0.001l0-0.003l0-0.014l-0.001-0.024c-0.001-0.033-0.003-0.063-0.005-0.092
							c-0.003-0.055-0.005-0.101-0.007-0.138c-0.008-0.147-0.008-0.162-0.008-0.162s-0.013-0.233-0.035-0.646
							c-0.044-0.412-0.003-1.012-0.145-1.728c-0.202-1.432-0.656-3.389-1.705-5.204c-1.035-1.826-2.745-3.322-4.389-4.157
							c-0.395-0.222-0.83-0.411-1.174-0.537c-0.17-0.066-0.33-0.129-0.475-0.187c-0.298-0.09-0.538-0.163-0.698-0.212
							C17.032,31.636,16.293,31.659,15.282,31.862z"/>
					</g>
				</g>
			</g>
		</g>
		<g>
			<g>
				<path fill="#E52420" d="M44.822,31.862c0,0-11.193-0.061-11.193,13.192C33.629,45.055,31.839,41.776,44.822,31.862z"/>
				<g>
					<g>
						<path fill="#E83D39" d="M44.822,31.862c-1.011-0.203-1.75-0.227-2.941,0.088c-0.16,0.049-0.4,0.122-0.698,0.212
							c-0.146,0.058-0.305,0.12-0.475,0.187c-0.345,0.126-0.779,0.315-1.174,0.538c-1.644,0.834-3.354,2.33-4.389,4.156
							c-1.049,1.815-1.503,3.772-1.705,5.204c-0.141,0.716-0.1,1.315-0.145,1.728c-0.021,0.413-0.034,0.646-0.034,0.646
							s-0.001,0.015-0.009,0.162c-0.002,0.037-0.004,0.083-0.007,0.138c-0.002,0.028-0.003,0.059-0.005,0.092l-0.002,0.024v0.014
							v0.003v0.001c0.326-0.084-0.731,0.187,0.732-0.187v-0.001l0,0v-0.003l-0.002-0.02c-0.021-0.023-0.007-0.247-0.028-0.43l0,0
							c0.017-0.076,0.071-0.319,0.154-0.693c0.13-0.368,0.372-0.871,0.666-1.446c0.389-0.539,0.779-1.197,1.301-1.843
							c0.553-0.625,1.146-1.295,1.748-1.977c0.666-0.629,1.343-1.269,2-1.889c0.329-0.309,0.653-0.613,0.969-0.909
							c0.293-0.261,0.756-0.619,0.809-0.667c0.555-0.451,1.01-0.822,1.245-1.013C43.756,33.222,44.196,32.691,44.822,31.862
							c-0.929,0.433-1.545,0.759-2.484,1.513c-0.237,0.191-0.698,0.564-1.259,1.018c-0.055,0.049-0.521,0.41-0.816,0.674
							c-0.321,0.301-0.65,0.61-0.985,0.924c-0.667,0.631-1.366,1.269-2.031,1.92c-0.619,0.701-1.229,1.391-1.797,2.034
							c-0.54,0.669-0.96,1.37-1.364,1.938c-0.325,0.631-0.588,1.181-0.736,1.613c-0.1,0.463-0.165,0.766-0.185,0.859l0,0
							c0.025,0.336-0.015,0.524,0.085,0.787l0.032,0.085l0.004,0.011l0.001,0.002v0.001c1.464-0.373,0.406-0.104,0.732-0.187v-0.001
							l0.001-0.003v-0.013l0.002-0.024c0.002-0.031,0.003-0.061,0.005-0.088c0.003-0.053,0.005-0.097,0.007-0.132
							c0.008-0.143,0.009-0.157,0.009-0.157s0.012-0.225,0.034-0.623c0.044-0.395,0.002-0.979,0.139-1.659
							c0.194-1.369,0.63-3.223,1.607-4.913c0.965-1.699,2.542-3.077,4.076-3.859c0.367-0.208,0.774-0.385,1.097-0.503
							c0.16-0.063,0.309-0.122,0.444-0.176c0.279-0.087,0.505-0.156,0.655-0.202C43.215,32.395,43.835,32.157,44.822,31.862z"/>
					</g>
				</g>
			</g>
		</g>
	</g>
	<g>
		<g>
			<circle fill="#E52420" cx="26.077" cy="33.827" r="1.314"/>
			<g>
				<g>
					<path fill="#E83D39" d="M26.077,32.513c0.376,0.271,0.47,0.471,0.689,0.706c0.058,0.064,0.164,0.211,0.213,0.421
						c0.042,0.212,0.006,0.477-0.127,0.681c-0.274,0.445-0.794,0.423-0.775,0.432c0.02-0.009-0.501,0.014-0.775-0.432
						c-0.133-0.204-0.169-0.469-0.127-0.681c0.05-0.209,0.155-0.356,0.214-0.421C25.607,32.983,25.701,32.783,26.077,32.513
						c-0.384-0.237-0.863-0.251-1.273,0.189c-0.109,0.117-0.311,0.387-0.398,0.779c-0.083,0.389-0.014,0.883,0.235,1.261
						c0.239,0.385,0.626,0.619,0.927,0.706c0.302,0.098,0.513,0.071,0.51,0.083c-0.002-0.013,0.208,0.015,0.51-0.083
						c0.3-0.087,0.688-0.322,0.927-0.706c0.248-0.378,0.317-0.873,0.234-1.261c-0.088-0.393-0.29-0.663-0.399-0.78
						C26.94,32.261,26.461,32.275,26.077,32.513z"/>
				</g>
			</g>
		</g>
		<g>
			<circle fill="#E52420" cx="30" cy="29.605" r="1.314"/>
			<g>
				<g>
					<path fill="#E83D39" d="M30,28.292c0.375,0.271,0.47,0.471,0.689,0.706c0.058,0.065,0.164,0.211,0.214,0.421
						c0.042,0.211,0.006,0.477-0.126,0.68c-0.273,0.445-0.795,0.423-0.776,0.431c0.02-0.008-0.502,0.014-0.776-0.43
						c-0.132-0.204-0.168-0.469-0.127-0.68c0.05-0.209,0.155-0.356,0.214-0.421C29.53,28.762,29.624,28.562,30,28.292
						c-0.384-0.238-0.863-0.251-1.273,0.189c-0.109,0.117-0.31,0.387-0.398,0.78c-0.082,0.388-0.013,0.882,0.235,1.261
						c0.239,0.384,0.627,0.618,0.928,0.705c0.302,0.097,0.513,0.07,0.51,0.082c-0.002-0.013,0.208,0.015,0.51-0.083
						c0.3-0.087,0.688-0.321,0.927-0.706c0.248-0.378,0.316-0.872,0.234-1.26c-0.089-0.393-0.29-0.662-0.399-0.779
						C30.862,28.04,30.384,28.054,30,28.292z"/>
				</g>
			</g>
		</g>
		<g>
			<circle fill="#E52420" cx="34.026" cy="33.827" r="1.314"/>
			<g>
				<g>
					<path fill="#E83D39" d="M34.026,32.513c0.376,0.271,0.47,0.471,0.688,0.706c0.059,0.064,0.164,0.212,0.214,0.421
						c0.042,0.212,0.006,0.477-0.127,0.681c-0.274,0.445-0.795,0.423-0.775,0.432c0.02-0.009-0.501,0.014-0.775-0.432
						c-0.133-0.204-0.169-0.469-0.127-0.681c0.05-0.209,0.155-0.355,0.214-0.421C33.557,32.983,33.65,32.783,34.026,32.513
						c-0.385-0.237-0.863-0.251-1.273,0.189c-0.108,0.117-0.311,0.387-0.398,0.779c-0.082,0.388-0.014,0.884,0.235,1.261
						c0.239,0.384,0.626,0.619,0.927,0.706c0.302,0.098,0.513,0.071,0.51,0.083c-0.003-0.012,0.209,0.015,0.511-0.083
						c0.3-0.087,0.688-0.322,0.927-0.706c0.248-0.378,0.316-0.873,0.234-1.261c-0.088-0.393-0.29-0.663-0.398-0.78
						C34.89,32.262,34.41,32.275,34.026,32.513z"/>
				</g>
			</g>
		</g>
	</g>
	<g>
		<g>
			<path fill="#E52420" d="M37.931,31.896c2.814-2.465,5.42-3.332,5.42-3.332c-5.53,0-7.043,2.251-7.043,2.251l0,0
				c-0.18,0.181-0.291,0.429-0.291,0.704c0,0.549,0.446,0.994,0.995,0.994c0.109,0,0.211-0.03,0.31-0.063l0.006,0.008
				c0.002-0.004,0.007-0.008,0.011-0.012C37.604,32.354,37.823,32.157,37.931,31.896z"/>
			<g>
				<g>
					<path fill="#E83D39" d="M37.931,31.896c0.922-0.465,1.524-0.765,2.509-1.405c0.169-0.105,0.438-0.285,1.024-0.614
						c0.304-0.17,0.726-0.39,1.127-0.574c0.201-0.087,0.396-0.172,0.565-0.246c0.085-0.033,0.163-0.063,0.233-0.091l0.049-0.018
						l0.023-0.008l0.01-0.003l0.002,0l0.001,0c0.11,0.683-0.15-0.93-0.124-0.764H43.35l0,0h-0.007
						c-0.035,0.001-0.067,0.001-0.097,0.002l0,0c-0.723,0.005-1.262,0.051-1.618,0.093c-0.357,0.036-0.532,0.069-0.532,0.069
						c-0.001,0-0.68,0.084-1.523,0.325c-0.847,0.231-1.84,0.668-2.482,1.106c-0.405,0.265-0.708,0.521-0.937,0.741
						c-0.113,0.109-0.209,0.21-0.288,0.303c-0.065,0.086-0.257,0.273-0.228,0.408c-0.005,0.438,0.093,0.568,0.192,0.794
						c0.106,0.196,0.238,0.364,0.402,0.497c0.162,0.132,0.361,0.232,0.58,0.257c0.226,0.026,0.421-0.05,0.572-0.127l0.114-0.098
						c-0.006,0.015-0.015,0.029-0.024,0.04l-0.073,0.046C37.678,32.477,37.886,32.203,37.931,31.896
						c-0.187,0.249-0.438,0.348-0.656,0.369l-0.073,0.046c-0.02,0.017-0.037,0.035-0.052,0.056l0.114-0.098
						c-0.292,0.023-0.406-0.061-0.565-0.247c-0.074-0.092-0.14-0.208-0.193-0.337c-0.027-0.063-0.048-0.133-0.066-0.202
						c-0.02-0.082-0.024-0.129-0.021-0.116c0.014-0.015-0.029,0.037,0.039-0.044c0.063-0.073,0.144-0.157,0.241-0.251
						c0.194-0.187,0.461-0.411,0.823-0.647c0.574-0.391,1.481-0.793,2.268-1.01c0.783-0.226,1.423-0.308,1.423-0.307
						c0,0,0.165-0.031,0.503-0.064c0.337-0.039,0.848-0.082,1.537-0.085l0,0c0.028,0,0.059-0.001,0.092-0.001h0.007l0,0h0.001
						c0.027,0.166-0.234-1.447-0.124-0.764l-0.002,0.001l-0.005,0.001l-0.015,0.005l-0.028,0.01l-0.058,0.021
						c-0.077,0.029-0.163,0.063-0.257,0.098c-0.18,0.078-0.387,0.168-0.601,0.261c-0.423,0.194-0.863,0.424-1.18,0.603
						c-0.611,0.344-0.891,0.532-1.066,0.644C38.998,30.512,38.526,31.055,37.931,31.896z"/>
				</g>
			</g>
		</g>
		<g>
			<path fill="#E52420" d="M22.174,31.896c-2.813-2.465-5.42-3.332-5.42-3.332c5.53,0,7.042,2.251,7.042,2.251l0,0
				c0.18,0.181,0.291,0.429,0.291,0.704c0,0.549-0.446,0.994-0.996,0.994c-0.109,0-0.209-0.03-0.308-0.063l-0.005,0.008
				c-0.003-0.004-0.009-0.008-0.013-0.012C22.499,32.354,22.281,32.157,22.174,31.896z"/>
			<g>
				<g>
					<path fill="#E83D39" d="M22.174,31.896c-0.595-0.842-1.067-1.384-2.085-2.061c-0.175-0.111-0.455-0.299-1.066-0.644
						c-0.316-0.178-0.756-0.408-1.18-0.603c-0.214-0.093-0.421-0.182-0.601-0.26c-0.093-0.036-0.179-0.069-0.256-0.099l-0.058-0.021
						l-0.029-0.01l-0.015-0.005l-0.004-0.001l-0.002-0.001c0.11-0.683-0.151,0.93-0.124,0.764h0h0.001h0.006
						c0.033,0,0.064,0.001,0.092,0.001l0,0c0.69,0.004,1.2,0.047,1.537,0.085c0.338,0.034,0.502,0.064,0.502,0.064
						c0,0,0.64,0.082,1.423,0.307c0.786,0.216,1.693,0.619,2.267,1.009c0.362,0.237,0.629,0.461,0.824,0.648
						c0.097,0.094,0.178,0.178,0.241,0.251c0.069,0.081,0.026,0.029,0.039,0.044c0.013-0.03-0.038,0.22-0.087,0.318
						c-0.053,0.128-0.119,0.245-0.193,0.336c-0.159,0.187-0.273,0.271-0.564,0.247l0.086,0.058l-0.026-0.015l-0.073-0.046
						C22.611,32.243,22.36,32.146,22.174,31.896c0.044,0.308,0.253,0.581,0.529,0.732l-0.073-0.046l0.004,0.001l0.087,0.058
						c0.15,0.076,0.347,0.153,0.572,0.126c0.219-0.025,0.417-0.125,0.58-0.258c0.164-0.133,0.296-0.3,0.402-0.497
						c0.099-0.226,0.197-0.354,0.192-0.794c0.029-0.135-0.162-0.321-0.228-0.407c-0.079-0.093-0.175-0.193-0.289-0.304
						c-0.228-0.219-0.531-0.475-0.937-0.74c-0.643-0.438-1.636-0.875-2.482-1.106c-0.844-0.241-1.523-0.326-1.523-0.325
						c0,0-0.175-0.033-0.533-0.069c-0.356-0.042-0.895-0.088-1.618-0.093l0,0c-0.029,0-0.062-0.001-0.097-0.002h-0.006h-0.001h0
						c0.027-0.166-0.234,1.447-0.124,0.764l0.001,0l0.002,0l0.01,0.003l0.022,0.008l0.05,0.018c0.07,0.027,0.148,0.057,0.233,0.09
						c0.169,0.073,0.364,0.158,0.566,0.246c0.401,0.185,0.822,0.404,1.126,0.574c0.586,0.329,0.856,0.509,1.025,0.614
						C20.65,31.131,21.252,31.431,22.174,31.896z"/>
				</g>
			</g>
		</g>
	</g>
	<g>
		<g>
			<path fill="#E52420" d="M35.931,40.064c-0.004-0.004-0.008-0.007-0.01-0.011l-0.006,0.007c-0.093-0.03-0.189-0.059-0.292-0.059
				c-0.519,0-0.939,0.421-0.939,0.938c0,0.26,0.104,0.494,0.274,0.665l0,0c0,0,1.428,2.125,6.649,2.125c0,0-2.46-0.818-5.117-3.146
				C36.389,40.338,36.183,40.152,35.931,40.064z"/>
			<g>
				<g>
					<path fill="#E83D39" d="M35.926,40.059l-0.011-0.001h0.001c-0.201-0.153-0.515-0.191-0.762-0.073
						c-0.246,0.109-0.438,0.294-0.584,0.514c-0.073,0.11-0.133,0.233-0.178,0.371c-0.025,0.129-0.129,0.419,0.038,0.594
						c0.225,0.311,0.377,0.461,0.635,0.688c0.168,0.137,0.436,0.374,1.065,0.731c0.54,0.316,1.515,0.713,2.377,0.902
						c0.858,0.202,1.581,0.261,1.581,0.261s0.603,0.066,1.371,0.075l0.146,0.002c0.056-0.341-0.122,0.763,0.125-0.764H41.73
						l-0.001-0.001h-0.003l-0.007-0.003l-0.015-0.005l-0.031-0.012l-0.064-0.023l-0.266-0.105l-0.539-0.24
						c-0.355-0.167-0.693-0.345-0.972-0.5c-0.781-0.438-1.237-0.759-1.478-0.921c-0.482-0.333-0.867-0.587-1.247-0.814
						c-0.164-0.106-0.438-0.239-0.514-0.312C36.43,40.219,36.183,40.082,35.926,40.059c0.217,0.146,0.333,0.339,0.382,0.526
						c0.145,0.309,0.283,0.396,0.437,0.591c0.308,0.338,0.666,0.66,1.166,1.013c0.249,0.172,0.723,0.507,1.54,0.966
						c0.291,0.163,0.646,0.35,1.021,0.525l0.573,0.254l0.289,0.114l0.073,0.027l0.037,0.014l0.02,0.007l0.01,0.003l0.006,0.002
						l0.003,0.001l0.002,0.001c0.248-1.526,0.068-0.424,0.123-0.764l-0.139-0.002c-0.732-0.007-1.3-0.068-1.3-0.068
						s-0.682-0.058-1.479-0.247c-0.802-0.179-1.69-0.542-2.175-0.824c-0.565-0.32-0.799-0.526-0.945-0.644
						c-0.197-0.159-0.427-0.385-0.508-0.461c-0.015-0.012-0.03,0.013-0.023-0.077c0.007-0.087,0.022-0.178,0.049-0.265
						c0.109-0.329,0.286-0.749,0.828-0.688h0.001L35.926,40.059z"/>
				</g>
			</g>
		</g>
		<g>
			<path fill="#E52420" d="M24.173,40.064c0.003-0.004,0.009-0.007,0.012-0.011l0.005,0.007c0.093-0.03,0.188-0.059,0.291-0.059
				c0.519,0,0.94,0.421,0.94,0.938c0,0.26-0.105,0.494-0.275,0.665l0,0c0,0-1.428,2.125-6.649,2.125c0,0,2.461-0.818,5.117-3.146
				C23.715,40.338,23.921,40.152,24.173,40.064z"/>
			<g>
				<g>
					<path fill="#E83D39" d="M24.179,40.06l0.01,0.004h0.001c0.542-0.062,0.719,0.359,0.828,0.688
						c0.026,0.088,0.042,0.178,0.049,0.266c0.006,0.088-0.01,0.063-0.023,0.075c-0.083,0.077-0.312,0.303-0.509,0.462
						c-0.146,0.117-0.379,0.323-0.945,0.644c-0.485,0.282-1.373,0.646-2.175,0.824c-0.798,0.189-1.479,0.247-1.479,0.247
						s-0.568,0.062-1.3,0.068l-0.139,0.002c0.247,1.526,0.069,0.423,0.125,0.763h0.001l0.003-0.001l0.006-0.002l0.01-0.004
						l0.02-0.007l0.037-0.013l0.073-0.027l0.29-0.114l0.573-0.254c0.375-0.176,0.73-0.362,1.021-0.525
						c0.817-0.459,1.291-0.794,1.54-0.966c0.5-0.353,0.859-0.676,1.166-1.014c0.153-0.194,0.292-0.281,0.437-0.591
						C23.846,40.396,23.962,40.204,24.179,40.06c-0.256,0.022-0.504,0.158-0.67,0.362c-0.075,0.073-0.348,0.204-0.513,0.312
						c-0.38,0.228-0.764,0.481-1.247,0.814c-0.24,0.162-0.696,0.482-1.477,0.921c-0.278,0.155-0.617,0.333-0.972,0.5l-0.539,0.239
						l-0.265,0.105l-0.064,0.024L18.4,43.349l-0.015,0.006l-0.007,0.002l-0.003,0.001l-0.001,0.001h0
						c0.055,0.341-0.125-0.763,0.123,0.764l0.146-0.002c0.769-0.009,1.372-0.075,1.372-0.075s0.722-0.059,1.581-0.261
						c0.862-0.189,1.837-0.586,2.376-0.902c0.63-0.357,0.898-0.595,1.065-0.731c0.257-0.227,0.411-0.377,0.635-0.688
						c0.168-0.174,0.065-0.463,0.039-0.593c-0.044-0.138-0.104-0.261-0.177-0.371c-0.145-0.221-0.338-0.405-0.584-0.514
						c-0.247-0.119-0.56-0.081-0.761,0.072h0.001L24.179,40.06z"/>
				</g>
			</g>
		</g>
	</g>
	<g>
		<polygon points="30.052,50.343 29.326,49.084 28.599,47.826 30.052,47.826 31.506,47.826 30.778,49.084 		"/>
		<g>
			<g>
				<path fill="#1D1D1D" d="M30.052,50.343c0.012-0.479-0.01-0.786-0.25-1.213c-0.072-0.126-0.221-0.387-0.385-0.674l-0.126-0.218
					c-0.027-0.047-0.007-0.012-0.013-0.022l0,0.003l-0.004-0.001c0.152,0,0.282-0.001,0.389-0.001c0.251,0,0.389-0.001,0.389-0.001
					s0.138,0.001,0.389,0.001c0.106,0,0.236,0.001,0.388,0.001l-0.003,0.001v-0.003c-0.006,0.011,0.015-0.024-0.013,0.022
					l-0.126,0.218c-0.164,0.287-0.313,0.548-0.386,0.674C30.063,49.557,30.041,49.864,30.052,50.343
					c0.42-0.229,0.675-0.402,0.925-0.823c0.202-0.35,0.841-1.45,1.208-2.086c-1.321,0.002-2.133,0.003-2.133,0.003
					s-0.812-0.001-2.133-0.003c0.368,0.636,1.005,1.736,1.208,2.086C29.376,49.94,29.632,50.113,30.052,50.343z"/>
			</g>
		</g>
	</g>
	<g>
		<g>
			<path d="M20.201,33.722c0,0,5.436,2.48,4.997,6.023c0,0-3.757-2.216-4.75-4.83C20.447,34.915,20.152,34.359,20.201,33.722z"/>
			<g>
				<g>
					<path fill="#E83E3A" d="M20.201,33.722c0.783,0.67,1.283,1.116,2.204,1.821c0.154,0.122,0.413,0.313,0.882,0.773
						c0.407,0.39,1.028,1.125,1.3,1.849c0.054,0.183,0.146,0.35,0.161,0.514c0.023,0.132,0.043,0.251,0.061,0.352
						c0.001,0.004,0.001,0.001,0.001,0.002l0,0v-0.001c-0.158-0.112-0.364-0.259-0.591-0.42c-0.514-0.379-1.084-0.864-1.487-1.237
						c-0.634-0.624-0.985-1.039-1.139-1.274c-0.418-0.483-0.593-0.905-0.898-1.278l-0.014-0.03
						C20.48,34.513,20.308,34.173,20.201,33.722c-0.115,0.448-0.127,0.877,0.012,1.317l-0.013-0.029
						c0.17,0.471,0.322,1.026,0.767,1.556c0.171,0.264,0.551,0.716,1.226,1.379c0.424,0.396,1.025,0.905,1.561,1.299
						c0.136,0.096,0.266,0.187,0.385,0.271c0.139,0.095,0.173,0.131,0.409,0.277c0.375,0.236,0.634,0.4,0.709,0.448
						c0.077,0.047,0.145,0.089,0.206,0.126c0.058,0.033,0.128,0.099,0.108,0.006c0.003-0.106,0.004-0.181,0.006-0.232
						c0.002-0.104,0.003-0.117,0.003-0.117s0.008-0.343,0.021-0.893c-0.006-0.063-0.012-0.129-0.018-0.197l-0.021-0.134
						c-0.016-0.091-0.032-0.188-0.049-0.289c-0.024-0.207-0.127-0.408-0.196-0.632c-0.333-0.88-1.034-1.695-1.478-2.118
						c-0.513-0.501-0.79-0.703-0.955-0.831C21.896,34.185,21.207,33.946,20.201,33.722z"/>
				</g>
			</g>
		</g>
		<g>
			<path d="M39.902,33.722c0,0-5.435,2.48-4.995,6.023c0,0,3.757-2.216,4.75-4.83C39.657,34.915,39.953,34.359,39.902,33.722z"/>
			<g>
				<g>
					<path fill="#E83E3A" d="M39.902,33.722c-1.006,0.225-1.694,0.464-2.683,1.206c-0.165,0.129-0.441,0.33-0.955,0.831
						c-0.443,0.424-1.144,1.239-1.477,2.119c-0.068,0.224-0.172,0.424-0.195,0.631c-0.018,0.102-0.033,0.199-0.049,0.289
						l-0.021,0.135c-0.006,0.068-0.012,0.135-0.017,0.197c0.012,0.55,0.021,0.893,0.021,0.893s0,0.014,0.002,0.117
						c0.002,0.051,0.004,0.125,0.006,0.231c-0.02,0.093,0.051,0.026,0.109-0.006c0.06-0.037,0.128-0.079,0.205-0.126
						c0.075-0.048,0.334-0.212,0.709-0.448c0.236-0.146,0.271-0.183,0.409-0.276c0.119-0.085,0.249-0.176,0.385-0.271
						c0.535-0.394,1.137-0.903,1.561-1.299c0.675-0.663,1.055-1.115,1.226-1.379c0.445-0.529,0.598-1.085,0.768-1.556l-0.014,0.03
						C40.031,34.6,40.019,34.17,39.902,33.722c-0.105,0.452-0.278,0.791-0.479,1.068l-0.014,0.031
						c-0.305,0.373-0.479,0.795-0.897,1.279c-0.154,0.234-0.505,0.649-1.139,1.273c-0.402,0.373-0.974,0.858-1.487,1.237
						c-0.227,0.161-0.434,0.308-0.591,0.42v0.001l0,0c0-0.001,0,0.002,0.001-0.002c0.018-0.101,0.038-0.219,0.061-0.351
						c0.015-0.164,0.107-0.331,0.161-0.514c0.271-0.725,0.893-1.46,1.3-1.85c0.468-0.459,0.728-0.651,0.881-0.772
						C38.619,34.838,39.12,34.392,39.902,33.722z"/>
				</g>
			</g>
		</g>
	</g>
	<g>
		<g>
			<path fill="#FFFFFF" d="M25.599,19.734c0,0-8.505-3.708-13.198-16.785c0,0-4.287,20.945,5.091,22.21"/>
			<g>
				<g>
					<path fill="#1D1D1D" d="M25.599,19.734c-0.786-0.666-1.266-1.132-2.221-1.82c-0.128-0.095-0.319-0.239-0.557-0.417
						c-0.115-0.094-0.242-0.196-0.377-0.306c-0.36-0.277-0.814-0.691-1.24-1.074c-1.738-1.59-3.511-3.765-4.921-6.026
						c-0.359-0.562-0.703-1.124-0.997-1.697c-0.301-0.568-0.624-1.107-0.862-1.662c-0.255-0.547-0.499-1.071-0.729-1.565
						c-0.249-0.624-0.482-1.209-0.697-1.747c-0.172-0.425-0.337-0.832-0.493-1.217c-0.078-0.193-0.154-0.38-0.228-0.563
						c-0.046,0.113-0.077,0.353-0.114,0.512c-0.142,0.7-0.262,1.338-0.349,1.864c-0.099,0.619-0.154,0.968-0.154,0.968
						s-0.198,1.219-0.384,3.124c-0.184,1.902-0.346,4.5-0.159,7.228c0.096,1.362,0.283,2.757,0.629,4.088
						c0.333,1.318,0.879,2.621,1.589,3.597c0.246,0.339,0.487,0.634,0.726,0.854c0.217,0.239,0.427,0.395,0.567,0.498
						c1.038,0.759,1.85,0.862,2.864,0.789c-0.946-0.424-1.494-0.747-2.386-1.405c-0.121-0.09-0.303-0.224-0.491-0.437
						c-0.209-0.19-0.422-0.454-0.642-0.757c-1.322-1.803-1.894-4.658-2.073-7.282c-0.184-2.658-0.027-5.221,0.154-7.098
						c0.182-1.879,0.377-3.083,0.377-3.083s0.04-0.256,0.111-0.711c0.003-0.022,0.001-0.002,0.001-0.009v0
						c0.044,0.113,0.09,0.229,0.136,0.347c0.096,0.242,0.195,0.493,0.297,0.751c0.234,0.504,0.483,1.04,0.743,1.598
						c0.244,0.566,0.572,1.118,0.88,1.699c0.3,0.585,0.651,1.161,1.019,1.736c1.442,2.315,3.261,4.547,5.052,6.185
						c0.438,0.395,0.907,0.821,1.279,1.108c0.141,0.113,0.271,0.219,0.391,0.315c0.247,0.183,0.446,0.331,0.579,0.429
						C23.914,19.248,24.589,19.514,25.599,19.734z"/>
				</g>
			</g>
		</g>
		<g>
			<path fill="#FFFFFF" d="M42.508,25.159c9.378-1.265,5.092-22.21,5.092-22.21c-4.693,13.077-13.198,16.785-13.198,16.785"/>
			<g>
				<g>
					<path fill="#1D1D1D" d="M42.508,25.159c1.014,0.073,1.825-0.03,2.864-0.789c0.14-0.103,0.351-0.259,0.566-0.498
						c0.111-0.116,0.242-0.236,0.364-0.38c0.162-0.215,0.331-0.438,0.504-0.667c0.151-0.256,0.319-0.514,0.466-0.789
						c1.161-2.228,1.573-5.13,1.671-7.844c0.095-2.728-0.12-5.318-0.337-7.217c-0.111-0.95-0.225-1.729-0.308-2.27
						c-0.131-0.786-0.205-1.229-0.205-1.229s-0.111-0.574-0.309-1.593c-0.028-0.494-0.164,0.05-0.278,0.292
						c-0.119,0.294-0.249,0.614-0.388,0.956c-0.196,0.49-0.418,1.045-0.662,1.654c-0.741,1.726-1.836,4.041-3.34,6.246
						c-1.477,2.206-3.381,4.316-5.13,5.809c-0.602,0.496-1.103,0.891-1.364,1.073c-0.956,0.688-1.436,1.155-2.222,1.82
						c1.01-0.22,1.686-0.486,2.68-1.189c0.273-0.187,0.794-0.594,1.415-1.105c1.806-1.54,3.76-3.708,5.271-5.969
						c1.54-2.259,2.656-4.623,3.411-6.383c0.088-0.223,0.172-0.437,0.251-0.639l0.028-0.071l0,0l0,0l0,0l-0.001-0.001
						c0,0,0-0.002,0.001,0.001c0,0,0.025,0.161,0.069,0.446c0.082,0.534,0.193,1.303,0.302,2.241c0.214,1.875,0.424,4.432,0.329,7.1
						c-0.092,2.653-0.511,5.464-1.581,7.506c-0.134,0.252-0.287,0.483-0.423,0.717c-0.154,0.205-0.305,0.404-0.45,0.596
						c-0.107,0.127-0.223,0.23-0.319,0.333c-0.188,0.212-0.371,0.347-0.491,0.437C44.002,24.412,43.453,24.735,42.508,25.159z"/>
				</g>
			</g>
		</g>
	</g>
</g>
</svg>
