<?xml version="1.0" encoding="utf-8"?>
<!-- Generator: Adobe Illustrator 16.0.0, SVG Export Plug-In . SVG Version: 6.00 Build 0)  -->
<!DOCTYPE svg PUBLIC "-//W3C//DTD SVG 1.1//EN" "http://www.w3.org/Graphics/SVG/1.1/DTD/svg11.dtd">
<svg version="1.1" id="Calque_1" xmlns="http://www.w3.org/2000/svg" xmlns:xlink="http://www.w3.org/1999/xlink" x="0px" y="0px"
	 width="60px" height="60px" viewBox="0 0 60 60" enable-background="new 0 0 60 60" xml:space="preserve">
<g>
	<g>
		<path fill="#E52420" stroke="#000000" stroke-linejoin="round" stroke-miterlimit="10" d="M44.88,33.318
			c2.294,0,7.123-11.333,7.123-11.333c3.603-9.766-4.386-19.439-4.386-19.439c-1.047,9.241-13.198,16.785-13.198,16.785
			C39.394,28.971,44.88,33.318,44.88,33.318z"/>
		<path fill="#E52420" stroke="#000000" stroke-linejoin="round" stroke-miterlimit="10" d="M25.617,19.331
			c0,0-12.152-7.544-13.198-16.785c0,0-7.989,9.673-4.386,19.439c0,0,4.83,11.333,7.124,11.333
			C15.156,33.318,20.643,28.971,25.617,19.331z"/>
	</g>
	<path fill="#FFFFFF" stroke="#000000" stroke-miterlimit="10" d="M45.594,33.413L45.594,33.413c0-8.122-7.403-14.706-15.523-14.706
		c-8.122,0-15.525,6.583-15.525,14.706c0,0-0.658,10.337,8.932,19.925c0,0,4.204,3.579,6.594,3.579c2.388,0,6.593-3.579,6.593-3.579
		C46.252,43.75,45.594,33.413,45.594,33.413z"/>
	<g>
		<path fill="none" stroke="#000000" stroke-linecap="round" stroke-linejoin="round" stroke-miterlimit="10" d="M30.069,50.218
			c-0.934,2.463-3.688,3.704-6.151,2.771c-1.972-0.747-2.964-2.95-2.217-4.922"/>
		<path fill="none" stroke="#000000" stroke-linecap="round" stroke-linejoin="round" stroke-miterlimit="10" d="M30.069,50.218
			c0.935,2.463,3.688,3.704,6.152,2.771c1.971-0.747,2.964-2.95,2.219-4.922"/>
	</g>
	<g>
		<g>
			<path fill="#E52420" stroke="#E52420" stroke-linejoin="round" stroke-miterlimit="10" d="M15.3,31.459
				c0,0,11.194-0.061,11.194,13.192C26.494,44.651,28.284,41.373,15.3,31.459z"/>
			<path fill="none" stroke="#E52420" stroke-linecap="round" stroke-linejoin="round" stroke-miterlimit="10" d="M26.494,44.651
				c0,0.866-0.704,1.572-1.572,1.572c-0.694,0-1.257-0.564-1.257-1.258"/>
		</g>
		<g>
			<path fill="#E52420" stroke="#E52420" stroke-linejoin="round" stroke-miterlimit="10" d="M44.84,31.459
				c0,0-11.193-0.061-11.193,13.192C33.646,44.651,31.856,41.373,44.84,31.459z"/>
			<path fill="none" stroke="#E52420" stroke-linecap="round" stroke-linejoin="round" stroke-miterlimit="10" d="M33.646,44.651
				c0,0.866,0.704,1.572,1.57,1.572c0.696,0,1.258-0.564,1.258-1.258"/>
		</g>
	</g>
	<g>
		<circle fill="#E52420" stroke="#E52420" stroke-linejoin="round" stroke-miterlimit="10" cx="26.095" cy="33.424" r="1.314"/>
		<circle fill="#E52420" stroke="#E52420" stroke-linejoin="round" stroke-miterlimit="10" cx="30.017" cy="29.202" r="1.314"/>
		<circle fill="#E52420" stroke="#E52420" stroke-linejoin="round" stroke-miterlimit="10" cx="34.044" cy="33.424" r="1.314"/>
	</g>
	<g>
		<path fill="#E52420" stroke="#E52420" stroke-linejoin="round" stroke-miterlimit="10" d="M37.948,31.492
			c2.814-2.465,5.42-3.332,5.42-3.332c-5.53,0-7.043,2.251-7.043,2.251l0,0c-0.18,0.181-0.291,0.429-0.291,0.704
			c0,0.549,0.446,0.994,0.995,0.994c0.109,0,0.211-0.03,0.31-0.063l0.006,0.008c0.002-0.004,0.007-0.008,0.011-0.012
			C37.622,31.95,37.841,31.754,37.948,31.492z"/>
		<path fill="#E52420" stroke="#E52420" stroke-linejoin="round" stroke-miterlimit="10" d="M22.191,31.492
			c-2.813-2.465-5.42-3.332-5.42-3.332c5.53,0,7.042,2.251,7.042,2.251l0,0c0.18,0.181,0.291,0.429,0.291,0.704
			c0,0.549-0.446,0.994-0.996,0.994c-0.109,0-0.209-0.03-0.308-0.063l-0.005,0.008c-0.003-0.004-0.009-0.008-0.013-0.012
			C22.517,31.95,22.298,31.754,22.191,31.492z"/>
	</g>
	<g>
		<path fill="#E52420" stroke="#E52420" stroke-linejoin="round" stroke-miterlimit="10" d="M35.948,39.661
			c-0.004-0.004-0.008-0.007-0.01-0.011l-0.006,0.007c-0.093-0.03-0.189-0.059-0.292-0.059c-0.519,0-0.939,0.421-0.939,0.938
			c0,0.26,0.104,0.494,0.274,0.665l0,0c0,0,1.428,2.125,6.649,2.125c0,0-2.46-0.818-5.117-3.146
			C36.406,39.935,36.2,39.749,35.948,39.661z"/>
		<path fill="#E52420" stroke="#E52420" stroke-linejoin="round" stroke-miterlimit="10" d="M24.191,39.661
			c0.003-0.004,0.009-0.007,0.012-0.011l0.005,0.007c0.093-0.03,0.188-0.059,0.291-0.059c0.519,0,0.94,0.421,0.94,0.938
			c0,0.26-0.105,0.494-0.275,0.665l0,0c0,0-1.428,2.125-6.649,2.125c0,0,2.461-0.818,5.117-3.146
			C23.732,39.935,23.938,39.749,24.191,39.661z"/>
	</g>
	<polygon stroke="#000000" stroke-linecap="round" stroke-linejoin="round" stroke-miterlimit="10" points="30.07,49.939 
		29.343,48.681 28.617,47.423 30.07,47.423 31.523,47.423 30.796,48.681 	"/>
	<g>
		<path d="M20.218,33.318c0,0,5.436,2.48,4.997,6.023c0,0-3.757-2.216-4.75-4.83C20.464,34.512,20.17,33.956,20.218,33.318z"/>
		<path d="M39.92,33.318c0,0-5.435,2.48-4.995,6.023c0,0,3.757-2.216,4.75-4.83C39.675,34.512,39.971,33.956,39.92,33.318z"/>
	</g>
	<g>
		<path fill="#FFFFFF" stroke="#000000" stroke-linecap="round" stroke-linejoin="round" stroke-miterlimit="10" d="M25.617,19.331
			c0,0-8.505-3.708-13.198-16.785c0,0-4.287,20.945,5.091,22.21"/>
		<path fill="#FFFFFF" stroke="#000000" stroke-linecap="round" stroke-linejoin="round" stroke-miterlimit="10" d="M42.525,24.756
			c9.378-1.265,5.092-22.21,5.092-22.21c-4.693,13.077-13.198,16.785-13.198,16.785"/>
	</g>
</g>
</svg>
