<?xml version="1.0" encoding="utf-8"?>
<!-- Generator: Adobe Illustrator 16.0.0, SVG Export Plug-In . SVG Version: 6.00 Build 0)  -->
<!DOCTYPE svg PUBLIC "-//W3C//DTD SVG 1.1//EN" "http://www.w3.org/Graphics/SVG/1.1/DTD/svg11.dtd">
<svg version="1.1" id="Calque_1" xmlns="http://www.w3.org/2000/svg" xmlns:xlink="http://www.w3.org/1999/xlink" x="0px" y="0px"
	 width="60px" height="60px" viewBox="0 0 60 60" enable-background="new 0 0 60 60" xml:space="preserve">
<g>
	<path fill="#E52420" stroke="#000000" stroke-linejoin="round" stroke-miterlimit="10" d="M24.463,13.206
		c0,0-10.135-2.883-11.135-11.717c0,0-7.637,9.248-4.193,18.583c0,0,1.356,4.249,3.549,4.249
		C12.684,24.321,19.708,22.422,24.463,13.206z"/>
	<path fill="#E52420" stroke="#000000" stroke-linejoin="round" stroke-miterlimit="10" d="M35.664,13.206
		c0,0,10.136-2.883,11.136-11.717c0,0,7.637,9.248,4.192,18.583c0,0-1.355,4.249-3.549,4.249
		C47.443,24.321,40.42,22.422,35.664,13.206z"/>
</g>
<path fill="#FFFFFF" stroke="#000000" stroke-miterlimit="10" d="M49.003,30.125L49.003,30.125
	c-0.001-9.908-9.032-17.94-18.938-17.94c-9.908,0-18.94,8.032-18.94,17.94c0,0-0.802,12.609,10.896,24.307
	c0,0,5.129,4.365,8.044,4.365c2.914,0,8.043-4.365,8.043-4.365C49.805,42.734,49.003,30.125,49.003,30.125z"/>
<g>
	<path fill="none" stroke="#000000" stroke-linecap="round" stroke-linejoin="round" stroke-miterlimit="10" d="M30.063,50.625
		c-1.139,3.006-4.5,4.52-7.505,3.38c-2.405-0.911-3.616-3.599-2.704-6.004"/>
	<path fill="none" stroke="#000000" stroke-linecap="round" stroke-linejoin="round" stroke-miterlimit="10" d="M30.063,50.625
		c1.14,3.006,4.499,4.52,7.505,3.38c2.405-0.911,3.616-3.599,2.705-6.004"/>
</g>
<g>
	<g>
		<path fill="#E52420" stroke="#E52420" stroke-linejoin="round" stroke-miterlimit="10" d="M12.046,27.741
			c0,0,13.655-0.073,13.655,16.093C25.701,43.834,27.885,39.834,12.046,27.741z"/>
		<path fill="none" stroke="#E52420" stroke-linecap="round" stroke-linejoin="round" stroke-miterlimit="10" d="M25.701,43.834
			c0,1.059-0.858,1.917-1.917,1.917c-0.847,0-1.534-0.687-1.534-1.533"/>
	</g>
	<g>
		<path fill="#E52420" stroke="#E52420" stroke-linejoin="round" stroke-miterlimit="10" d="M48.082,27.741
			c0,0-13.655-0.073-13.655,16.093C34.427,43.834,32.243,39.834,48.082,27.741z"/>
		<path fill="none" stroke="#E52420" stroke-linecap="round" stroke-linejoin="round" stroke-miterlimit="10" d="M34.427,43.834
			c0,1.059,0.858,1.917,1.917,1.917c0.848,0,1.533-0.687,1.533-1.533"/>
	</g>
</g>
<g>
	<circle fill="#E52420" stroke="#E52420" stroke-linejoin="round" stroke-miterlimit="10" cx="25.215" cy="30.137" r="1.603"/>
	<circle fill="#E52420" stroke="#E52420" stroke-linejoin="round" stroke-miterlimit="10" cx="30" cy="24.988" r="1.603"/>
	<circle fill="#E52420" stroke="#E52420" stroke-linejoin="round" stroke-miterlimit="10" cx="34.912" cy="30.137" r="1.603"/>
</g>
<g>
	<path fill="#E52420" stroke="#E52420" stroke-linejoin="round" stroke-miterlimit="10" d="M39.675,27.781
		c3.432-3.007,6.612-4.064,6.612-4.064c-6.746,0-8.591,2.746-8.591,2.746l0,0c-0.22,0.22-0.355,0.523-0.355,0.858
		c0,0.67,0.544,1.213,1.214,1.213c0.133,0,0.256-0.036,0.376-0.076l0.006,0.01c0.005-0.005,0.011-0.009,0.016-0.014
		C39.278,28.34,39.544,28.1,39.675,27.781z"/>
	<path fill="#E52420" stroke="#E52420" stroke-linejoin="round" stroke-miterlimit="10" d="M20.453,27.781
		c-3.432-3.007-6.612-4.064-6.612-4.064c6.746,0,8.591,2.746,8.591,2.746l0,0c0.22,0.22,0.355,0.523,0.355,0.858
		c0,0.67-0.544,1.213-1.214,1.213c-0.133,0-0.256-0.036-0.376-0.076l-0.006,0.01c-0.005-0.005-0.011-0.009-0.016-0.014
		C20.849,28.34,20.583,28.1,20.453,27.781z"/>
</g>
<polygon stroke="#000000" stroke-linecap="round" stroke-linejoin="round" stroke-miterlimit="10" points="30.064,50.286 
	29.177,48.751 28.291,47.216 30.064,47.216 31.837,47.216 30.951,48.751 "/>
<g>
	<path d="M18.046,30.008c0,0,6.631,3.026,6.095,7.351c0,0-4.583-2.704-5.795-5.894C18.346,31.465,17.987,30.786,18.046,30.008z"/>
	<path d="M42.081,30.008c0,0-6.631,3.026-6.094,7.351c0,0,4.583-2.704,5.795-5.894C41.782,31.465,42.142,30.786,42.081,30.008z"/>
</g>
<path fill="#FFFFFF" stroke="#000000" stroke-linecap="round" stroke-linejoin="round" stroke-miterlimit="10" d="M26.173,12.601
	c0,0-8.359,1.389-12.845-11.112c0,0-4.479,14.832,4.486,16.041"/>
<path fill="#FFFFFF" stroke="#000000" stroke-linecap="round" stroke-linejoin="round" stroke-miterlimit="10" d="M33.989,12.601
	c0,0,8.359,1.389,12.845-11.112c0,0,4.48,14.832-4.485,16.041"/>
<path fill="#E52420" stroke="#E52420" stroke-linejoin="round" stroke-miterlimit="10" d="M30,15.072
	c-12.667,2-15.083-5.563-15.083-5.563C16,18.447,30,20.53,30,20.53s14-2.083,15.084-11.021C45.084,9.509,42.668,17.072,30,15.072z
	 M30,19.511c-0.885,0-1.603-0.718-1.603-1.603s0.717-1.603,1.603-1.603s1.603,0.717,1.603,1.603S30.885,19.511,30,19.511z"/>
</svg>
