<?xml version="1.0" encoding="utf-8"?>
<!-- Generator: Adobe Illustrator 16.0.0, SVG Export Plug-In . SVG Version: 6.00 Build 0)  -->
<!DOCTYPE svg PUBLIC "-//W3C//DTD SVG 1.1//EN" "http://www.w3.org/Graphics/SVG/1.1/DTD/svg11.dtd">
<svg version="1.1" id="Calque_1" xmlns="http://www.w3.org/2000/svg" xmlns:xlink="http://www.w3.org/1999/xlink" x="0px" y="0px"
	 width="390.102px" height="54.554px" viewBox="0 0 390.102 54.554" enable-background="new 0 0 390.102 54.554"
	 xml:space="preserve">
<g>
	<path stroke="#000000" stroke-miterlimit="10" d="M16.157,34.038c0,4.202-3.64,7.607-8.129,7.607l0,0
		c-4.49,0-8.129-3.405-8.129-7.607V20.516c0-4.202,3.639-7.607,8.129-7.607l0,0c4.489,0,8.129,3.405,8.129,7.607V34.038z"/>
	<path stroke="#000000" stroke-miterlimit="10" d="M390.102,34.038c0,4.202-3.639,7.607-8.129,7.607l0,0
		c-4.491,0-8.13-3.405-8.13-7.607V20.516c0-4.202,3.639-7.607,8.13-7.607l0,0c4.49,0,8.129,3.405,8.129,7.607V34.038z"/>
	<rect x="8.029" y="1.92" fill="#F4DE9F" width="373.944" height="50.714"/>
	<path fill="#C58C22" d="M46.146,17.135c0-2.801-2.427-5.073-5.419-5.073c2.992,0,5.419-2.271,5.419-5.071
		c0-2.8-2.427-5.072-5.419-5.072H29.887c-2.994,0-5.419,2.271-5.419,5.072s2.426,5.071,5.419,5.071
		c-2.994,0-5.419,2.271-5.419,5.073c0,2.799,2.426,5.07,5.419,5.07c-2.994,0-5.419,2.271-5.419,5.071
		c0,2.801,2.426,5.072,5.419,5.072c-2.994,0-5.419,2.271-5.419,5.07c0,2.803,2.426,5.073,5.419,5.073
		c-2.994,0-5.419,2.271-5.419,5.07c0,2.802,2.426,5.073,5.419,5.073h10.839c2.992,0,5.419-2.271,5.419-5.073
		c0-2.799-2.427-5.07-5.419-5.07c2.992,0,5.419-2.271,5.419-5.073c0-2.799-2.427-5.07-5.419-5.07c2.992,0,5.419-2.271,5.419-5.072
		c0-2.8-2.427-5.071-5.419-5.071C43.719,22.205,46.146,19.936,46.146,17.135z"/>
	<path fill="#C58C22" d="M366.256,17.611c0-2.801-2.426-5.072-5.42-5.072c2.994,0,5.42-2.271,5.42-5.072
		c0-2.799-2.426-5.071-5.42-5.071h-10.839c-2.994,0-5.419,2.271-5.419,5.071s2.425,5.072,5.419,5.072
		c-2.994,0-5.419,2.271-5.419,5.072c0,2.8,2.425,5.072,5.419,5.072c-2.994,0-5.419,2.27-5.419,5.068
		c0,2.801,2.425,5.074,5.419,5.074c-2.994,0-5.419,2.271-5.419,5.07c0,2.802,2.425,5.073,5.419,5.073
		c-2.994,0-5.419,2.271-5.419,5.069c0,2.803,2.425,5.072,5.419,5.072h10.839c2.994,0,5.42-2.27,5.42-5.072
		c0-2.798-2.426-5.069-5.42-5.069c2.994,0,5.42-2.271,5.42-5.073c0-2.8-2.426-5.07-5.42-5.07c2.994,0,5.42-2.273,5.42-5.074
		c0-2.799-2.426-5.068-5.42-5.068C363.83,22.682,366.256,20.411,366.256,17.611z"/>
	<path fill="#BB4139" d="M38.247,52.634c2.992,0,5.419-2.271,5.419-5.072c0-2.798-2.427-5.07-5.419-5.07
		c2.992,0,5.419-2.271,5.419-5.072c0-2.799-2.427-5.07-5.419-5.07c2.992,0,5.419-2.272,5.419-5.072c0-2.801-2.427-5.071-5.419-5.071
		c2.992,0,5.419-2.271,5.419-5.072s-2.427-5.071-5.419-5.071c2.992,0,5.419-2.271,5.419-5.071s-2.427-5.072-5.419-5.072h-5.881
		c-2.994,0-5.419,2.271-5.419,5.072s2.426,5.071,5.419,5.071c-2.994,0-5.419,2.271-5.419,5.071s2.426,5.072,5.419,5.072
		c-2.994,0-5.419,2.27-5.419,5.071c0,2.8,2.426,5.072,5.419,5.072c-2.994,0-5.419,2.271-5.419,5.07c0,2.801,2.426,5.072,5.419,5.072
		c-2.994,0-5.419,2.272-5.419,5.07c0,2.802,2.426,5.072,5.419,5.072H38.247z"/>
	<path fill="#BB4139" d="M358.358,53.109c2.992,0,5.419-2.271,5.419-5.072c0-2.797-2.427-5.07-5.419-5.07
		c2.992,0,5.419-2.271,5.419-5.072c0-2.799-2.427-5.07-5.419-5.07c2.992,0,5.419-2.273,5.419-5.072c0-2.801-2.427-5.072-5.419-5.072
		c2.992,0,5.419-2.27,5.419-5.07s-2.427-5.072-5.419-5.072c2.992,0,5.419-2.27,5.419-5.07s-2.427-5.072-5.419-5.072h-5.882
		c-2.992,0-5.42,2.271-5.42,5.072s2.428,5.07,5.42,5.07c-2.992,0-5.42,2.271-5.42,5.072s2.428,5.07,5.42,5.07
		c-2.992,0-5.42,2.271-5.42,5.072c0,2.799,2.428,5.072,5.42,5.072c-2.992,0-5.42,2.271-5.42,5.07c0,2.801,2.428,5.072,5.42,5.072
		c-2.992,0-5.42,2.273-5.42,5.07c0,2.801,2.428,5.072,5.42,5.072H358.358z"/>
	<g>
		<path fill="#BB4139" d="M61.5,51.865c0,1.484-1.132,2.688-2.529,2.688l0,0c-1.397,0-2.529-1.204-2.529-2.688V2.689
			C56.443,1.203,57.575,0,58.971,0l0,0C60.369,0,61.5,1.204,61.5,2.689V51.865z"/>
		<path fill="#BB4139" d="M13.087,51.865c0,1.484-1.133,2.688-2.529,2.688l0,0c-1.397,0-2.529-1.204-2.529-2.688V2.689
			C8.03,1.203,9.162,0,10.558,0l0,0c1.397,0,2.529,1.204,2.529,2.689V51.865z"/>
		<path fill="#BB4139" d="M333.559,51.865c0,1.484-1.133,2.688-2.529,2.688l0,0c-1.397,0-2.531-1.204-2.531-2.688V2.689
			c0-1.486,1.134-2.689,2.531-2.689l0,0c1.396,0,2.529,1.204,2.529,2.689V51.865z"/>
		<path fill="#BB4139" d="M381.973,51.865c0,1.484-1.134,2.688-2.531,2.688l0,0c-1.396,0-2.529-1.204-2.529-2.688V2.689
			c0-1.486,1.133-2.689,2.529-2.689l0,0c1.397,0,2.531,1.204,2.531,2.689V51.865z"/>
	</g>
</g>
</svg>
