<?xml version="1.0" encoding="utf-8"?>
<!-- Generator: Adobe Illustrator 16.0.0, SVG Export Plug-In . SVG Version: 6.00 Build 0)  -->
<!DOCTYPE svg PUBLIC "-//W3C//DTD SVG 1.1//EN" "http://www.w3.org/Graphics/SVG/1.1/DTD/svg11.dtd">
<svg version="1.1" id="Calque_1" xmlns="http://www.w3.org/2000/svg" xmlns:xlink="http://www.w3.org/1999/xlink" x="0px" y="0px"
	 width="360px" height="50px" viewBox="0 0 360 50" enable-background="new 0 0 360 50" xml:space="preserve">
<path stroke="#000000" stroke-miterlimit="10" d="M15,31.404c0,3.877-3.358,7.019-7.5,7.019l0,0c-4.142,0-7.5-3.142-7.5-7.019
	V18.928c0-3.876,3.358-7.018,7.5-7.018l0,0c4.142,0,7.5,3.142,7.5,7.018V31.404z"/>
<path stroke="#000000" stroke-miterlimit="10" d="M360,31.404c0,3.877-3.357,7.019-7.5,7.019l0,0c-4.143,0-7.5-3.142-7.5-7.019
	V18.928c0-3.876,3.357-7.018,7.5-7.018l0,0c4.143,0,7.5,3.142,7.5,7.018V31.404z"/>
<rect x="7.5" y="1.772" fill="#F4DE9F" width="345" height="46.789"/>
<path fill="#C58C22" d="M42.667,15.809c0-2.584-2.239-4.68-5-4.68c2.761,0,5-2.095,5-4.679c0-2.583-2.239-4.679-5-4.679h-10
	c-2.761,0-5,2.095-5,4.679c0,2.584,2.239,4.679,5,4.679c-2.761,0-5,2.095-5,4.68c0,2.583,2.239,4.679,5,4.679
	c-2.761,0-5,2.095-5,4.678c0,2.584,2.239,4.68,5,4.68c-2.761,0-5,2.095-5,4.678c0,2.585,2.239,4.68,5,4.68c-2.761,0-5,2.096-5,4.678
	c0,2.585,2.239,4.68,5,4.68h10c2.761,0,5-2.095,5-4.68c0-2.582-2.239-4.678-5-4.678c2.761,0,5-2.095,5-4.68
	c0-2.583-2.239-4.678-5-4.678c2.761,0,5-2.096,5-4.68c0-2.583-2.239-4.678-5-4.678C40.428,20.488,42.667,18.393,42.667,15.809z"/>
<path fill="#C58C22" d="M338,16.249c0-2.584-2.238-4.68-5-4.68c2.762,0,5-2.095,5-4.679c0-2.583-2.238-4.679-5-4.679h-10
	c-2.762,0-5,2.095-5,4.679c0,2.584,2.238,4.679,5,4.679c-2.762,0-5,2.095-5,4.68c0,2.583,2.238,4.679,5,4.679
	c-2.762,0-5,2.095-5,4.678c0,2.584,2.238,4.68,5,4.68c-2.762,0-5,2.095-5,4.678c0,2.585,2.238,4.68,5,4.68c-2.762,0-5,2.096-5,4.678
	c0,2.585,2.238,4.68,5,4.68h10c2.762,0,5-2.095,5-4.68c0-2.582-2.238-4.678-5-4.678c2.762,0,5-2.095,5-4.68
	c0-2.583-2.238-4.678-5-4.678c2.762,0,5-2.096,5-4.68c0-2.583-2.238-4.678-5-4.678C335.762,20.927,338,18.832,338,16.249z"/>
<path fill="#BB4139" d="M35.38,48.561c2.761,0,5-2.095,5-4.68c0-2.581-2.239-4.678-5-4.678c2.761,0,5-2.095,5-4.68
	c0-2.582-2.239-4.678-5-4.678c2.761,0,5-2.096,5-4.679c0-2.584-2.239-4.679-5-4.679c2.761,0,5-2.095,5-4.679s-2.239-4.679-5-4.679
	c2.761,0,5-2.095,5-4.679s-2.239-4.679-5-4.679h-5.426c-2.761,0-5,2.095-5,4.679s2.239,4.679,5,4.679c-2.761,0-5,2.095-5,4.679
	s2.239,4.679,5,4.679c-2.761,0-5,2.094-5,4.679c0,2.583,2.239,4.679,5,4.679c-2.761,0-5,2.096-5,4.678c0,2.585,2.239,4.68,5,4.68
	c-2.761,0-5,2.097-5,4.678c0,2.585,2.239,4.68,5,4.68H35.38z"/>
<path fill="#BB4139" d="M330.713,49c2.761,0,5-2.095,5-4.68c0-2.581-2.239-4.678-5-4.678c2.761,0,5-2.095,5-4.68
	c0-2.582-2.239-4.678-5-4.678c2.761,0,5-2.096,5-4.679c0-2.584-2.239-4.679-5-4.679c2.761,0,5-2.095,5-4.679s-2.239-4.679-5-4.679
	c2.761,0,5-2.095,5-4.679s-2.239-4.679-5-4.679h-5.426c-2.761,0-5,2.095-5,4.679s2.239,4.679,5,4.679c-2.761,0-5,2.095-5,4.679
	s2.239,4.679,5,4.679c-2.761,0-5,2.094-5,4.679c0,2.583,2.239,4.679,5,4.679c-2.761,0-5,2.096-5,4.678c0,2.585,2.239,4.68,5,4.68
	c-2.761,0-5,2.097-5,4.678c0,2.585,2.239,4.68,5,4.68H330.713z"/>
<g>
	<path fill="#BB4139" d="M56.833,47.851c0,1.37-1.045,2.481-2.333,2.481l0,0c-1.289,0-2.333-1.111-2.333-2.481V2.482
		c0-1.371,1.045-2.481,2.333-2.481l0,0c1.289,0,2.333,1.111,2.333,2.481V47.851z"/>
	<path fill="#BB4139" d="M12.167,47.851c0,1.37-1.045,2.481-2.333,2.481l0,0c-1.289,0-2.333-1.111-2.333-2.481V2.482
		c0-1.371,1.045-2.481,2.333-2.481l0,0c1.289,0,2.333,1.111,2.333,2.481V47.851z"/>
	<path fill="#BB4139" d="M307.834,47.851c0,1.37-1.045,2.481-2.334,2.481l0,0c-1.289,0-2.334-1.111-2.334-2.481V2.482
		c0-1.371,1.045-2.481,2.334-2.481l0,0c1.289,0,2.334,1.111,2.334,2.481V47.851z"/>
	<path fill="#BB4139" d="M352.5,47.851c0,1.37-1.045,2.481-2.334,2.481l0,0c-1.289,0-2.334-1.111-2.334-2.481V2.482
		c0-1.371,1.045-2.481,2.334-2.481l0,0c1.289,0,2.334,1.111,2.334,2.481V47.851z"/>
</g>
</svg>
